<svg width="63" height="63" viewBox="0 0 63 63" fill="none" xmlns="http://www.w3.org/2000/svg">
<path d="M11.1562 0H51.8437C58.0125 0 63 5.11538 63 11.4423V51.5577C63 57.8846 58.0125 63 51.8437 63H11.1562C4.9875 63 0 57.8846 0 51.5577V11.4423C0 5.11538 4.9875 0 11.1562 0Z" fill="#00005B"/>
<path d="M25.305 37.6923H15.54L13.545 44.0461C13.4925 44.2884 13.2825 44.45 13.0462 44.4231H8.11121C7.82246 44.4231 7.74371 44.2615 7.82246 43.9384L16.275 19.0884C16.3537 18.8192 16.4325 18.5769 16.5375 18.2538C16.6425 17.6884 16.695 17.0961 16.695 16.5038C16.6687 16.3692 16.7737 16.2346 16.905 16.2077C16.9312 16.2077 16.9575 16.2077 16.9837 16.2077H23.7037C23.8875 16.2077 24.0187 16.2884 24.045 16.4231L33.6262 44.0192C33.705 44.3154 33.6262 44.45 33.3637 44.45H27.8775C27.6937 44.4769 27.51 44.3423 27.4575 44.1538L25.305 37.6923ZM17.0625 32.3346H23.73C23.5725 31.7692 23.3625 31.0961 23.1262 30.3961C22.89 29.6692 22.6537 28.8884 22.4175 28.0808C22.155 27.2461 21.9187 26.4384 21.6562 25.6038C21.3937 24.7692 21.1575 23.9884 20.9475 23.2077C20.7375 22.4538 20.5537 21.7538 20.37 21.1077H20.3175C20.0812 22.2654 19.7925 23.4231 19.425 24.5808C19.0312 25.8731 18.6375 27.2192 18.2175 28.5654C17.8762 29.9384 17.4562 31.2038 17.0625 32.3346ZM49.1925 35.2154H40.8712C40.9762 36.05 41.2387 36.8846 41.685 37.6115C42.1575 38.3384 42.8137 38.9038 43.6012 39.2269C44.6512 39.6846 45.8062 39.9269 46.9612 39.9C47.88 39.8731 48.7987 39.7923 49.6912 39.6038C50.505 39.4961 51.2925 39.2808 52.0275 38.9846C52.1587 38.8769 52.2375 38.9308 52.2375 39.2V43.3192C52.2375 43.4269 52.2112 43.5346 52.185 43.6423C52.1325 43.7231 52.08 43.7769 52.0012 43.8308C51.1612 44.2077 50.295 44.4769 49.3762 44.6384C48.1425 44.8808 46.9087 44.9884 45.6487 44.9615C43.6537 44.9615 41.9737 44.6384 40.6087 44.0192C39.3225 43.4538 38.1937 42.5654 37.3012 41.4615C36.4612 40.4115 35.8575 39.2269 35.49 37.9346C35.1225 36.6692 34.9387 35.35 34.9387 34.0038C34.9387 32.55 35.1487 31.1231 35.595 29.7231C36.015 28.3769 36.6712 27.1384 37.5637 26.0346C38.43 24.9577 39.5062 24.0961 40.74 23.4769C41.9737 22.8577 43.4437 22.6423 45.1237 22.6423C46.515 22.6154 47.9062 22.8846 49.1925 23.4769C50.2687 23.9615 51.2137 24.6884 51.9487 25.6307C52.6312 26.5461 53.1825 27.5692 53.5237 28.7C53.865 29.7769 54.0225 30.8808 54.0225 31.9846C54.0225 32.6308 53.9962 33.1961 53.97 33.7077C53.9175 34.2192 53.8912 34.5961 53.865 34.8384C53.8387 35.0269 53.6812 35.1884 53.4975 35.1884C53.34 35.1884 53.0512 35.2154 52.6312 35.2423C52.2112 35.2961 51.7125 35.3231 51.1087 35.3231C50.505 35.3231 49.875 35.2154 49.1925 35.2154ZM40.8712 31.2846H46.41C47.0925 31.2846 47.5912 31.2846 47.9062 31.2577C48.1162 31.2308 48.3262 31.1769 48.51 31.0423V30.7731C48.51 30.4231 48.4575 30.1 48.3525 29.7769C47.88 28.2692 46.4887 27.2461 44.94 27.3C43.4962 27.2192 42.1312 28 41.4487 29.3461C41.1337 29.9654 40.95 30.6115 40.8712 31.2846Z" fill="#9999FF"/>
</svg>
