<svg width="63" height="63" viewBox="0 0 63 63" fill="none" xmlns="http://www.w3.org/2000/svg">
<path d="M21 63C26.796 63 31.5 58.296 31.5 52.5V42H21C15.204 42 10.5 46.704 10.5 52.5C10.5 58.296 15.204 63 21 63Z" fill="#0ACF83"/>
<path d="M10.5 31.5C10.5 25.704 15.204 21 21 21H31.5V42H21C15.204 42 10.5 37.296 10.5 31.5Z" fill="#A259FF"/>
<path d="M10.5 10.5C10.5 4.704 15.204 0 21 0H31.5V21H21C15.204 21 10.5 16.296 10.5 10.5Z" fill="#F24E1E"/>
<path d="M31.5 0H42C47.796 0 52.5 4.704 52.5 10.5C52.5 16.296 47.796 21 42 21H31.5V0Z" fill="#FF7262"/>
<path d="M52.5 31.5C52.5 37.296 47.796 42 42 42C36.204 42 31.5 37.296 31.5 31.5C31.5 25.704 36.204 21 42 21C47.796 21 52.5 25.704 52.5 31.5Z" fill="#1ABCFE"/>
</svg>
