<svg width="63" height="63" viewBox="0 0 63 63" fill="none" xmlns="http://www.w3.org/2000/svg">
<g clip-path="url(#clip0)">
<path d="M38.6241 22.7561L32.3241 28.623L26.4756 16.821L29.497 10.0354C30.2608 8.68087 31.5103 8.66512 32.2742 10.0354L38.6241 22.7561Z" fill="#FFA000"/>
<path d="M32.324 28.6204L8.75415 50.5418L26.4755 16.821L32.324 28.6204Z" fill="#F57F17"/>
<path d="M45.5331 13.7839C46.6618 12.7076 47.8247 13.0725 48.1187 14.5976L54.2455 50.2451L33.9227 62.4461C33.2087 62.8451 31.3187 63 31.3187 63C31.3187 63 29.5993 62.79 28.9405 62.4278L8.75684 50.5418L45.5331 13.7839Z" fill="#FFCA28"/>
<path d="M26.4756 16.8206L8.75684 50.5413L16.6528 1.2517C16.9495 -0.276046 17.8157 -0.430921 18.5953 0.920954L26.4756 16.8206Z" fill="#FFA000"/>
</g>
<defs>
<clipPath id="clip0">
<rect width="63" height="63" fill="white"/>
</clipPath>
</defs>
</svg>
