<svg width="63" height="63" viewBox="0 0 63 63" fill="none" xmlns="http://www.w3.org/2000/svg">
<path d="M44.625 5.25H18.375C11.1263 5.25 5.25 11.1263 5.25 18.375V44.625C5.25 51.8737 11.1263 57.75 18.375 57.75H44.625C51.8737 57.75 57.75 51.8737 57.75 44.625V18.375C57.75 11.1263 51.8737 5.25 44.625 5.25Z" stroke="white" stroke-width="2" stroke-linecap="round" stroke-linejoin="round"/>
<path d="M42 29.8462C42.3239 32.0309 41.9508 34.2621 40.9336 36.2224C39.9164 38.1828 38.307 39.7725 36.3342 40.7654C34.3615 41.7583 32.1259 42.1039 29.9454 41.7531C27.7649 41.4022 25.7506 40.3727 24.1889 38.811C22.6272 37.2494 21.5978 35.235 21.2469 33.0546C20.896 30.8741 21.2416 28.6385 22.2346 26.6657C23.2275 24.693 24.8172 23.0836 26.7775 22.0664C28.7379 21.0492 30.9691 20.676 33.1537 21C35.3821 21.3304 37.4452 22.3688 39.0382 23.9618C40.6311 25.5548 41.6695 27.6178 42 29.8462Z" stroke="white" stroke-width="2" stroke-linecap="round" stroke-linejoin="round"/>
<path d="M45.9375 17.0625H45.9637" stroke="white" stroke-width="2" stroke-linecap="round" stroke-linejoin="round"/>
</svg>
