<svg width="63" height="63" viewBox="0 0 63 63" fill="none" xmlns="http://www.w3.org/2000/svg">
<path d="M42 21C46.1772 21 50.1832 22.6594 53.1369 25.6131C56.0906 28.5668 57.75 32.5728 57.75 36.75V55.125H47.25V36.75C47.25 35.3576 46.6969 34.0223 45.7123 33.0377C44.7277 32.0531 43.3924 31.5 42 31.5C40.6076 31.5 39.2723 32.0531 38.2877 33.0377C37.3031 34.0223 36.75 35.3576 36.75 36.75V55.125H26.25V36.75C26.25 32.5728 27.9094 28.5668 30.8631 25.6131C33.8168 22.6594 37.8228 21 42 21V21Z" stroke="white" stroke-width="2" stroke-linecap="round" stroke-linejoin="round"/>
<path d="M15.75 23.625H5.25V55.125H15.75V23.625Z" stroke="white" stroke-width="2" stroke-linecap="round" stroke-linejoin="round"/>
<path d="M10.5 15.75C13.3995 15.75 15.75 13.3995 15.75 10.5C15.75 7.6005 13.3995 5.25 10.5 5.25C7.6005 5.25 5.25 7.6005 5.25 10.5C5.25 13.3995 7.6005 15.75 10.5 15.75Z" stroke="white" stroke-width="2" stroke-linecap="round" stroke-linejoin="round"/>
</svg>
