<svg width="63" height="63" viewBox="0 0 63 63" fill="none" xmlns="http://www.w3.org/2000/svg">
<path d="M18.375 47.25C27.0735 47.25 34.125 40.1985 34.125 31.5C34.125 22.8015 27.0735 15.75 18.375 15.75C9.67652 15.75 2.625 22.8015 2.625 31.5C2.625 40.1985 9.67652 47.25 18.375 47.25Z" fill="#424242"/>
<path d="M44.625 45.9375C48.9742 45.9375 52.5 39.4736 52.5 31.5C52.5 23.5264 48.9742 17.0625 44.625 17.0625C40.2758 17.0625 36.75 23.5264 36.75 31.5C36.75 39.4736 40.2758 45.9375 44.625 45.9375Z" fill="#424242"/>
<path d="M57.75 44.625C59.1997 44.625 60.375 38.7487 60.375 31.5C60.375 24.2513 59.1997 18.375 57.75 18.375C56.3003 18.375 55.125 24.2513 55.125 31.5C55.125 38.7487 56.3003 44.625 57.75 44.625Z" fill="#424242"/>
</svg>
