<svg width="63" height="63" viewBox="0 0 63 63" fill="none" xmlns="http://www.w3.org/2000/svg">
<path fill-rule="evenodd" clip-rule="evenodd" d="M36.3965 3.9375C36.0182 3.94279 35.6432 4.00927 35.2861 4.13437C38.4656 6.22519 34.7152 9.25313 36.4674 11.8125C36.3466 10.9516 36.4836 10.0743 36.8609 9.2912C37.2383 8.5081 37.8392 7.85431 38.5877 7.41234C39.1488 6.94575 39.5091 6.77841 39.389 6.00666C39.1941 4.74272 37.5088 3.9375 36.3965 3.9375ZM40.9246 4.75256C40.4856 6.96347 39.9402 7.04419 38.32 8.46759C37.688 8.96581 37.242 9.66217 37.0538 10.4446C36.8656 11.227 36.9461 12.05 37.2824 12.7811C30.5887 10.1824 22.0089 8.61131 15.7187 13.1079C13.4566 14.7243 12.0765 17.0454 9.2868 17.9924C7.48342 18.6106 5.71154 18.4275 4.58148 20.2151C4.16819 20.7313 3.95229 21.3778 3.97249 22.0388C3.99269 22.6998 4.24768 23.3319 4.69173 23.8219C5.02839 24.1664 5.67611 24.3869 5.94386 24.7373C6.09939 24.9342 6.09545 25.1311 6.24311 25.3929C6.50406 26.0032 6.88118 26.5568 7.35348 27.0231C7.64289 27.2613 8.63711 27.4936 8.80642 27.7476C9.01905 28.0645 8.46779 29.3226 8.93045 29.5194C9.24151 29.6632 10.153 28.0547 10.2416 27.9129C10.0605 29.1788 9.82229 31.4252 11.2457 29.5549C11.921 28.667 11.9623 28.3736 13.0983 28.1768C13.8252 28.0505 14.56 27.9742 15.2974 27.9484C19.5099 27.801 23.6185 29.2751 26.7766 32.0668C29.9346 34.8586 31.9015 38.7554 32.2719 42.9542C32.0593 41.9698 30.7737 40.3948 29.5767 40.7689C29.0668 40.9264 28.8778 41.8064 28.5431 42.3163C28.12 42.9629 27.5986 43.5394 26.9977 44.0252C27.0994 43.0707 27.0516 42.1063 26.8559 41.1666C26.4976 42.6392 25.779 45.0824 23.9697 44.6867C23.367 44.5947 22.8023 44.3351 22.34 43.9375C21.8777 43.54 21.5365 43.0205 21.3552 42.4384C21.121 40.9421 22.7019 39.188 20.1602 39.0639C15.0611 38.8139 16.2404 46.3129 19.2506 48.2678C18.5588 48.3444 17.884 48.5325 17.2524 48.825C19.1645 49.9355 21.3191 50.5619 23.5286 50.6497C25.7381 50.7376 27.9356 50.2841 29.9299 49.3289C31.9242 48.3737 33.6548 46.9456 34.9712 45.1689C36.2877 43.3923 37.15 41.3208 37.4832 39.1348C37.9214 41.1368 37.9113 43.2108 37.4537 45.2084C37.2091 46.2699 36.8431 47.2998 36.363 48.2777C35.7122 49.5985 34.8474 50.8026 33.8036 51.8411C33.1854 52.4534 32.0515 53.0696 31.6616 53.6937C34.0477 53.3774 36.3793 52.7362 38.5916 51.788C36.3015 54.9248 33.2516 57.4281 29.7283 59.0625C33.5059 58.7953 37.1576 57.5919 40.354 55.561C43.5504 53.5301 46.191 50.7354 48.0377 47.4292C47.4491 50.7358 46.142 53.873 44.2085 56.6193C46.8091 54.8783 49.0216 52.6184 50.7071 49.9815C52.3926 47.3446 53.5148 44.3877 54.003 41.2965C54.4878 43.5593 54.6266 45.8827 54.4145 48.1871C56.5508 45.2187 57.9939 41.8089 58.6375 38.2088C59.2812 34.6087 59.1089 30.91 58.1334 27.3853C57.3873 24.6453 56.2685 22.0207 54.8082 19.5851C54.2444 18.6361 53.6271 17.7198 52.9596 16.8407C52.6977 16.5001 51.2979 15.2539 51.2979 14.8719C51.2861 14.91 51.2763 14.91 51.2684 14.8719C51.2684 21.2664 44.3778 25.3713 38.6074 23.6585C40.8016 23.4883 42.8754 22.5878 44.4977 21.1007C46.1201 19.6136 47.1973 17.6258 47.5573 15.4547C47.8761 13.1769 47.3873 10.8595 46.1757 8.90453C44.9642 6.94958 43.1063 5.4806 40.9246 4.75256Z" fill="#EA2845"/>
</svg>
