<svg width="63" height="63" viewBox="0 0 63 63" fill="none" xmlns="http://www.w3.org/2000/svg">
<circle cx="31.4692" cy="31.4692" r="31.4692" fill="white"/>
<path d="M29.4393 0.0494238C29.3039 0.0617273 28.8733 0.104789 28.4857 0.135548C19.5473 0.941427 11.1747 5.76439 5.87194 13.1772C2.9191 17.2989 1.03052 21.9742 0.316916 26.9264C0.0646943 28.655 0.0339355 29.1656 0.0339355 31.5094C0.0339355 33.8533 0.0646943 34.3638 0.316916 36.0925C2.0271 47.91 10.4365 57.8389 21.8419 61.5176C23.8842 62.1759 26.0374 62.625 28.4857 62.8956C29.4393 63.0002 33.5609 63.0002 34.5145 62.8956C38.7407 62.4281 42.321 61.3823 45.8521 59.5798C46.3935 59.303 46.498 59.2292 46.4242 59.1677C46.375 59.1308 44.0681 56.0364 41.2998 52.2962L36.2677 45.4985L29.9622 36.1663C26.4926 31.0358 23.6382 26.8403 23.6136 26.8403C23.589 26.8341 23.5644 30.9804 23.552 36.0433C23.5336 44.9079 23.5274 45.2647 23.4167 45.4739C23.2568 45.7753 23.1337 45.8984 22.8754 46.0337C22.6785 46.1321 22.5063 46.1506 21.5773 46.1506H20.5131L20.2301 45.9722C20.0456 45.8553 19.9102 45.7015 19.8179 45.5231L19.6888 45.2463L19.7011 32.912L19.7195 20.5716L19.9102 20.3317C20.0086 20.2025 20.2178 20.0364 20.3654 19.9565C20.6177 19.8334 20.7161 19.8211 21.7803 19.8211C23.0353 19.8211 23.2445 19.8703 23.5705 20.2271C23.6628 20.3256 27.077 25.4684 31.1618 31.6632C35.2465 37.858 40.8323 46.3167 43.576 50.4691L48.5589 58.0173L48.8111 57.8512C51.0442 56.3994 53.4065 54.3324 55.2766 52.1793C59.2568 47.6086 61.822 42.0351 62.6833 36.0925C62.9355 34.3638 62.9663 33.8533 62.9663 31.5094C62.9663 29.1656 62.9355 28.655 62.6833 26.9264C60.9731 15.1089 52.5637 5.17998 41.1583 1.50124C39.1467 0.84915 37.0059 0.400073 34.6067 0.129396C34.0162 0.067879 29.9499 0.00020982 29.4393 0.0494238ZM42.321 19.0829C42.6163 19.2306 42.8562 19.5135 42.9423 19.8088C42.9916 19.9688 43.0039 23.3891 42.9916 31.0973L42.9731 42.1581L41.023 39.1684L39.0667 36.1786V28.1383C39.0667 22.9401 39.0914 20.018 39.1283 19.8765C39.2267 19.532 39.442 19.2613 39.7373 19.1014C39.9895 18.9722 40.0818 18.9599 41.0476 18.9599C41.9581 18.9599 42.118 18.9722 42.321 19.0829Z" fill="black"/>
<path d="M48.2512 58.1524C48.0359 58.2878 47.9682 58.3801 48.1589 58.2755C48.2942 58.1955 48.5157 58.0294 48.4788 58.0233C48.4603 58.0233 48.3558 58.0848 48.2512 58.1524ZM47.8267 58.4293C47.716 58.5154 47.716 58.5215 47.8513 58.4539C47.9251 58.417 47.9867 58.3739 47.9867 58.3616C47.9867 58.3124 47.9559 58.3247 47.8267 58.4293ZM47.5191 58.6138C47.4084 58.6999 47.4084 58.7061 47.5437 58.6384C47.6175 58.6015 47.6791 58.5585 47.6791 58.5462C47.6791 58.4969 47.6483 58.5092 47.5191 58.6138ZM47.2115 58.7984C47.1008 58.8845 47.1008 58.8907 47.2361 58.823C47.31 58.7861 47.3715 58.743 47.3715 58.7307C47.3715 58.6815 47.3407 58.6938 47.2115 58.7984ZM46.744 59.0444C46.5102 59.1675 46.5225 59.2167 46.7563 59.0998C46.8609 59.0444 46.9409 58.9891 46.9409 58.9768C46.9409 58.9337 46.9347 58.9399 46.744 59.0444Z" fill="black"/>
</svg>
