<svg width="63" height="39" viewBox="0 0 63 39" fill="none" xmlns="http://www.w3.org/2000/svg">
<g clip-path="url(#clip0)">
<path d="M31.1444 38.6574C30.9312 38.6574 30.7322 38.6003 30.5472 38.5004L28.6561 37.3732C28.3717 37.2161 28.5139 37.1591 28.5993 37.1305C28.9831 37.0021 29.0543 36.9735 29.4524 36.7453C29.4951 36.7167 29.552 36.731 29.5946 36.7595L31.045 37.63C31.1019 37.6585 31.173 37.6585 31.2155 37.63L36.8891 34.3336C36.9459 34.3051 36.9745 34.2479 36.9745 34.1767V27.5983C36.9745 27.5268 36.9459 27.4698 36.8891 27.4412L31.2155 24.1592C31.1587 24.1305 31.0876 24.1305 31.045 24.1592L25.3715 27.4412C25.3146 27.4697 25.2861 27.5411 25.2861 27.5981V34.1766C25.2861 34.2337 25.3146 34.305 25.3715 34.3336L26.9214 35.2326C27.7603 35.6606 28.2864 35.1612 28.2864 34.6618V28.1689C28.2864 28.0834 28.3575 27.9977 28.4571 27.9977H29.1822C29.2676 27.9977 29.3529 28.069 29.3529 28.1689V34.6618C29.3529 35.7891 28.7414 36.4455 27.675 36.4455C27.3479 36.4455 27.092 36.4455 26.3668 36.0887L24.8738 35.2326C24.5041 35.0186 24.2766 34.6189 24.2766 34.1909V27.6125C24.2766 27.1844 24.5041 26.7847 24.8738 26.5707L30.5472 23.2744C30.9028 23.0746 31.3863 23.0746 31.7417 23.2744L37.4152 26.5707C37.7849 26.7847 38.0125 27.1844 38.0125 27.6125V34.1909C38.0125 34.6189 37.7849 35.0186 37.4152 35.2326L31.7417 38.5289C31.5568 38.6146 31.3436 38.6574 31.1445 38.6574H31.1444ZM32.8934 34.1338C30.4051 34.1338 29.8932 32.9922 29.8932 32.0219C29.8932 31.9362 29.9643 31.8506 30.0638 31.8506H30.8033C30.8885 31.8506 30.9596 31.9077 30.9596 31.9934C31.0734 32.7496 31.4005 33.1206 32.9077 33.1206C34.1021 33.1206 34.6141 32.8495 34.6141 32.2073C34.6141 31.8363 34.4718 31.5653 32.6091 31.3797C31.0592 31.2227 30.0923 30.8803 30.0923 29.6388C30.0923 28.4829 31.0593 27.7979 32.6802 27.7979C34.5002 27.7979 35.3961 28.4259 35.5099 29.7956C35.5099 29.8386 35.4957 29.8813 35.4672 29.9242C35.4387 29.9527 35.3961 29.9812 35.3534 29.9812H34.614C34.5429 29.9812 34.4718 29.9242 34.4576 29.8528C34.287 29.068 33.8462 28.8111 32.6802 28.8111C31.372 28.8111 31.2155 29.2678 31.2155 29.6102C31.2155 30.024 31.4005 30.1525 33.1636 30.3807C34.9126 30.6092 35.7374 30.9373 35.7374 32.1645C35.7231 33.4203 34.6994 34.1338 32.8934 34.1338Z" fill="#539E43"/>
<path d="M13.5411 12.9287C13.5411 12.6719 13.3989 12.4291 13.1714 12.3007L7.14241 8.8189C7.04275 8.76173 6.92907 8.73321 6.81539 8.71889H6.75843C6.64475 8.71889 6.53094 8.76173 6.43141 8.8189L0.402422 12.3007C0.174815 12.4291 0.0327148 12.6717 0.0327148 12.9287L0.0469864 22.2897C0.0469864 22.4181 0.118098 22.5465 0.231778 22.6037C0.345582 22.6751 0.487682 22.6751 0.587337 22.6037L4.1706 20.5488C4.39809 20.4204 4.54031 20.1778 4.54031 19.921V15.54C4.54031 15.2832 4.68241 15.0406 4.91002 14.9122L6.43141 14.0274C6.54522 13.9561 6.67317 13.9274 6.80112 13.9274C6.92907 13.9274 7.05702 13.9561 7.15668 14.0274L8.67807 14.9122C8.90568 15.0406 9.04778 15.2831 9.04778 15.54V19.921C9.04778 20.1778 9.19 20.4204 9.41749 20.5488L13.0008 22.6037C13.1146 22.6751 13.2567 22.6751 13.3705 22.6037C13.4843 22.5465 13.5554 22.4181 13.5554 22.2897L13.5411 12.9287ZM42.5201 0.0428517C42.4064 -0.0143144 42.2642 -0.0143144 42.1645 0.0428517C42.0509 0.114217 41.9797 0.228302 41.9797 0.35671V9.63231C41.9797 9.71787 41.9372 9.80344 41.8518 9.8606C41.7665 9.90332 41.6811 9.90332 41.5959 9.8606L40.0886 8.99015C39.9781 8.92701 39.8532 8.8938 39.726 8.8938C39.5988 8.8938 39.4739 8.92701 39.3634 8.99015L33.3344 12.4863C33.1069 12.6147 32.9647 12.8573 32.9647 13.1141V20.0921C32.9647 20.3489 33.1069 20.5917 33.3344 20.7201L39.3634 24.2162C39.4739 24.2793 39.5988 24.3125 39.726 24.3125C39.8532 24.3125 39.9781 24.2793 40.0886 24.2162L46.1176 20.7201C46.3451 20.5917 46.4873 20.349 46.4873 20.0921V2.69706C46.4873 2.42592 46.3451 2.18343 46.1176 2.0549L42.5202 0.0428517H42.5201ZM41.9656 17.7947C41.9656 17.8661 41.9372 17.9231 41.8802 17.9516L39.8185 19.1503C39.7897 19.1644 39.758 19.1717 39.726 19.1717C39.694 19.1717 39.6623 19.1644 39.6335 19.1503L37.5718 17.9516C37.5148 17.9231 37.4864 17.8518 37.4864 17.7947V15.3973C37.4864 15.326 37.5148 15.2689 37.5718 15.2404L39.6335 14.0416C39.6623 14.0275 39.694 14.0202 39.726 14.0202C39.758 14.0202 39.7897 14.0275 39.8185 14.0416L41.8802 15.2404C41.9372 15.2688 41.9656 15.3403 41.9656 15.3973V17.7947ZM62.5835 15.3403C62.8112 15.2119 62.9391 14.9692 62.9391 14.7123V13.0142C62.9391 12.7574 62.7969 12.5148 62.5835 12.3864L56.5972 8.90458C56.4868 8.84146 56.3618 8.80827 56.2347 8.80827C56.1075 8.80827 55.9826 8.84146 55.8721 8.90458L49.8431 12.4006C49.6155 12.529 49.4734 12.7716 49.4734 13.0286V20.0065C49.4734 20.2633 49.6155 20.506 49.8431 20.6344L55.8294 24.0592C56.057 24.1876 56.3271 24.1876 56.5404 24.0592L60.1662 22.033C60.28 21.9759 60.3512 21.8475 60.3512 21.719C60.3512 21.5906 60.28 21.4622 60.1662 21.4051L54.1088 17.9089C53.9952 17.8377 53.924 17.7235 53.924 17.5951V15.4118C53.924 15.2834 53.9952 15.1549 54.1088 15.0978L56.0001 14.0132C56.0554 13.9783 56.1195 13.9597 56.1849 13.9597C56.2503 13.9597 56.3144 13.9783 56.3698 14.0132L58.2609 15.0978C58.3747 15.1691 58.4458 15.2832 58.4458 15.4118V17.1242C58.4458 17.2526 58.5169 17.381 58.6306 17.438C58.7444 17.5094 58.8865 17.5094 59.0003 17.438L62.5835 15.3403Z" fill="#333333"/>
<path d="M56.1424 15.0121C56.1635 14.9981 56.1882 14.9907 56.2134 14.9907C56.2387 14.9907 56.2634 14.9981 56.2845 15.0121L57.4363 15.6828C57.479 15.7112 57.5074 15.754 57.5074 15.8112V17.1525C57.5074 17.2096 57.479 17.2524 57.4363 17.2809L56.2845 17.9516C56.2634 17.9656 56.2387 17.973 56.2134 17.973C56.1882 17.973 56.1635 17.9656 56.1424 17.9516L54.9905 17.2809C54.9479 17.2524 54.9194 17.2096 54.9194 17.1525V15.8112C54.9194 15.754 54.9479 15.7112 54.9905 15.6828L56.1424 15.0121Z" fill="#539E43"/>
<mask id="mask0" mask-type="alpha" maskUnits="userSpaceOnUse" x="16" y="8" width="14" height="17">
<path d="M23.6227 8.9331C23.5122 8.86998 23.3872 8.83679 23.2601 8.83679C23.133 8.83679 23.008 8.86998 22.8975 8.9331L16.9112 12.4005C16.6836 12.5289 16.5557 12.7715 16.5557 13.0283V19.9779C16.5557 20.2347 16.6979 20.4773 16.9112 20.6057L22.8975 24.0734C23.008 24.1365 23.133 24.1697 23.2601 24.1697C23.3872 24.1697 23.5122 24.1365 23.6227 24.0734L29.6091 20.6057C29.8366 20.4773 29.9646 20.2347 29.9646 19.9779V13.0284C29.9646 12.7716 29.8223 12.529 29.6091 12.4006L23.6227 8.9331Z" fill="white"/>
</mask>
<g mask="url(#mask0)">
<path d="M23.6227 8.9331C23.5122 8.86998 23.3872 8.83679 23.2601 8.83679C23.133 8.83679 23.008 8.86998 22.8975 8.9331L16.9112 12.4005C16.6836 12.5289 16.5557 12.7715 16.5557 13.0283V19.9779C16.5557 20.2347 16.6979 20.4773 16.9112 20.6057L22.8975 24.0734C23.008 24.1365 23.133 24.1697 23.2601 24.1697C23.3872 24.1697 23.5122 24.1365 23.6227 24.0734L29.6091 20.6057C29.8366 20.4773 29.9646 20.2347 29.9646 19.9779V13.0284C29.9646 12.7716 29.8223 12.529 29.6091 12.4006L23.6227 8.9331Z" fill="url(#paint0_linear)"/>
<path d="M29.6232 12.4006L23.6085 8.93311C23.5494 8.90316 23.4874 8.87925 23.4236 8.86174L16.6836 20.449C16.7394 20.5175 16.8069 20.5754 16.8828 20.6203L22.8975 24.0879C23.0681 24.1878 23.2672 24.2163 23.452 24.1592L29.7797 12.5435C29.737 12.4864 29.6801 12.4434 29.6232 12.4007V12.4006Z" fill="url(#paint1_linear)"/>
<path fill-rule="evenodd" clip-rule="evenodd" d="M29.6376 20.6058C29.8082 20.5059 29.9361 20.3347 29.9931 20.1492L23.3951 8.8474C23.2245 8.81888 23.0395 8.83308 22.8833 8.93296L16.9111 12.3864L23.3524 24.1733C23.4461 24.158 23.5371 24.1291 23.6226 24.0878L29.6374 20.606L29.6376 20.6058Z" fill="url(#paint2_linear)"/>
<path fill-rule="evenodd" clip-rule="evenodd" d="M29.6375 20.6059L23.6369 24.0735C23.5522 24.1168 23.4609 24.1457 23.3667 24.159L23.4805 24.3731L30.1351 20.5061V20.4204L29.9645 20.1349C29.9361 20.3347 29.8081 20.506 29.6375 20.6059Z" fill="url(#paint3_linear)"/>
<path fill-rule="evenodd" clip-rule="evenodd" d="M29.6375 20.6059L23.6369 24.0735C23.5522 24.1168 23.4609 24.1457 23.3667 24.159L23.4805 24.3731L30.1351 20.5061V20.4204L29.9645 20.1349C29.9361 20.3347 29.8081 20.506 29.6375 20.6059Z" fill="url(#paint4_linear)"/>
</g>
</g>
<defs>
<linearGradient id="paint0_linear" x1="25.699" y1="11.5181" x2="19.1042" y2="21.8437" gradientUnits="userSpaceOnUse">
<stop stop-color="#41873F"/>
<stop offset="0.3288" stop-color="#418B3D"/>
<stop offset="0.6352" stop-color="#419637"/>
<stop offset="0.9319" stop-color="#3FA92D"/>
<stop offset="1" stop-color="#3FAE2A"/>
</linearGradient>
<linearGradient id="paint1_linear" x1="22.3512" y1="17.3173" x2="38.8109" y2="8.40638" gradientUnits="userSpaceOnUse">
<stop offset="0.1376" stop-color="#41873F"/>
<stop offset="0.4032" stop-color="#54A044"/>
<stop offset="0.7136" stop-color="#66B848"/>
<stop offset="0.9081" stop-color="#6CC04A"/>
</linearGradient>
<linearGradient id="paint2_linear" x1="16.337" y1="16.5034" x2="30.1892" y2="16.5034" gradientUnits="userSpaceOnUse">
<stop offset="0.09192" stop-color="#6CC04A"/>
<stop offset="0.2864" stop-color="#66B848"/>
<stop offset="0.5968" stop-color="#54A044"/>
<stop offset="0.8624" stop-color="#41873F"/>
</linearGradient>
<linearGradient id="paint3_linear" x1="16.337" y1="22.2657" x2="30.1891" y2="22.2657" gradientUnits="userSpaceOnUse">
<stop offset="0.09192" stop-color="#6CC04A"/>
<stop offset="0.2864" stop-color="#66B848"/>
<stop offset="0.5968" stop-color="#54A044"/>
<stop offset="0.8624" stop-color="#41873F"/>
</linearGradient>
<linearGradient id="paint4_linear" x1="32.2071" y1="11.1894" x2="28.6737" y2="29.6388" gradientUnits="userSpaceOnUse">
<stop stop-color="#41873F"/>
<stop offset="0.3288" stop-color="#418B3D"/>
<stop offset="0.6352" stop-color="#419637"/>
<stop offset="0.9319" stop-color="#3FA92D"/>
<stop offset="1" stop-color="#3FAE2A"/>
</linearGradient>
<clipPath id="clip0">
<rect width="63" height="38.7692" fill="white"/>
</clipPath>
</defs>
</svg>
