<svg width="63" height="63" viewBox="0 0 63 63" fill="none" xmlns="http://www.w3.org/2000/svg">
<path d="M31.4475 36.729C34.3586 36.729 36.7185 34.3691 36.7185 31.458C36.7185 28.5469 34.3586 26.187 31.4475 26.187C28.5364 26.187 26.1765 28.5469 26.1765 31.458C26.1765 34.3691 28.5364 36.729 31.4475 36.729Z" fill="#00D8FF"/>
<path d="M31.4474 43.533C24.0449 43.533 17.5769 42.6615 12.7364 41.0025C9.59688 39.9315 6.92988 38.5035 5.02938 36.876C3.01338 35.154 1.94238 33.2745 1.94238 31.458C1.94238 27.972 5.76438 24.5595 12.1799 22.3335C17.4299 20.5065 24.2759 19.488 31.4369 19.488C38.4719 19.488 45.2234 20.475 50.4419 22.281C53.4974 23.331 56.0699 24.696 57.8969 26.208C59.8814 27.867 60.9314 29.6835 60.9314 31.458C60.9314 35.0805 56.6579 38.745 49.7699 41.0235C44.8979 42.6405 38.3879 43.533 31.4474 43.533ZM31.4474 22.008C24.6539 22.008 17.9339 22.995 13.0199 24.7065C7.11888 26.7645 4.47288 29.5785 4.47288 31.458C4.47288 33.411 7.31838 36.4875 13.5554 38.619C18.1334 40.1835 24.3284 41.013 31.4474 41.013C38.1254 41.013 44.3519 40.173 48.9824 38.6295C55.4609 36.477 58.4219 33.4005 58.4219 31.458C58.4219 30.4605 57.6659 29.2845 56.2904 28.14C54.7049 26.817 52.3949 25.6095 49.6334 24.654C44.6669 22.953 38.2094 22.008 31.4474 22.008Z" fill="#00D8FF"/>
<path d="M19.4881 57.729C18.4171 57.729 17.4721 57.498 16.6741 57.036C13.6606 55.293 12.6106 50.274 13.8811 43.6065C14.9206 38.136 17.4616 31.71 21.0421 25.5045C24.5596 19.4145 28.7806 14.0595 32.9491 10.437C35.3851 8.316 37.8526 6.762 40.0786 5.943C42.5041 5.0505 44.6041 5.0505 46.1371 5.9325C49.2766 7.7385 50.3161 13.2825 48.8461 20.3805C47.8066 25.4205 45.3286 31.5 41.8636 37.5165C38.1676 43.9215 34.1776 49.0875 30.3241 52.458C27.8251 54.642 25.2526 56.238 22.9006 57.0675C21.6721 57.5085 20.5171 57.729 19.4881 57.729ZM22.1236 26.1345L23.2156 26.7645C19.8241 32.6445 17.3146 38.955 16.3486 44.079C15.1831 50.2215 16.3066 53.9175 17.9236 54.852C18.3226 55.083 18.8476 55.209 19.4881 55.209C21.5776 55.209 24.8641 53.886 28.6651 50.568C32.3086 47.3865 36.1201 42.4305 39.6796 36.267C43.0186 30.4815 45.3916 24.6645 46.3786 19.887C47.7541 13.1985 46.5676 9.1035 44.8771 8.127C44.0161 7.6335 42.6196 7.6965 40.9396 8.316C38.9971 9.03 36.8026 10.4265 34.5976 12.348C30.6391 15.792 26.5966 20.916 23.2156 26.775L22.1236 26.1345Z" fill="#00D8FF"/>
<path d="M43.4069 57.7605C40.5509 57.7605 36.9284 56.0385 33.1484 52.7835C28.9274 49.1505 24.6329 43.743 21.0419 37.5375C17.5139 31.4475 14.9939 25.116 13.9334 19.6875C13.3139 16.5165 13.1984 13.608 13.5974 11.2665C14.0384 8.715 15.0779 6.8985 16.6214 6.006C19.7504 4.1895 25.0739 6.0585 30.4919 10.878C34.3349 14.2905 38.3669 19.4775 41.8424 25.4835C45.5489 31.8885 48.0374 37.926 49.0244 42.945C49.6649 46.2 49.7699 49.224 49.3184 51.681C48.8354 54.2955 47.7434 56.154 46.1684 57.0675C45.3809 57.5295 44.4464 57.7605 43.4069 57.7605ZM23.2259 36.2775C26.6279 42.1575 30.8489 47.481 34.7969 50.8725C39.5324 54.9465 43.2914 55.8285 44.9189 54.8835C46.6094 53.907 47.8484 49.9065 46.5674 43.4385C45.6224 38.6925 43.2389 32.9175 39.6689 26.754C36.3194 20.9685 32.4659 16.002 28.8224 12.768C23.7194 8.232 19.5824 7.2135 17.8919 8.19C17.0309 8.6835 16.3904 9.933 16.0859 11.697C15.7394 13.734 15.8444 16.338 16.4114 19.2045C17.4194 24.36 19.8344 30.4185 23.2259 36.2775Z" fill="#00D8FF"/>
</svg>
