<svg width="63" height="63" viewBox="0 0 63 63" fill="none" xmlns="http://www.w3.org/2000/svg">
<path d="M0.185547 31.4315C0.185547 36.6948 4.80281 41.6079 12.082 44.3775C10.6283 52.5228 11.8216 59.0882 15.8067 61.6463C19.9027 64.2759 26.0051 62.4557 31.7972 56.82C37.4431 62.2281 43.149 64.3564 47.1306 61.7909C51.223 59.154 52.4675 52.1435 50.9737 43.7436C58.5556 40.9536 62.7966 36.7641 62.7966 31.4315C62.7966 26.2904 58.1709 21.8429 50.9897 19.0912C52.5979 10.3443 51.2353 3.93832 47.0851 1.27452C43.084 -1.29369 37.3117 0.944727 31.5828 6.4942C25.6227 0.60398 19.9074 -1.19426 15.7616 1.47694C11.7643 4.05254 10.6237 10.7374 12.082 19.0334C5.0484 21.7629 0.185547 26.3113 0.185547 31.4315Z" fill="white"/>
<path d="M49.4689 21.8238C48.877 21.5978 48.2802 21.3884 47.6788 21.1959C47.7786 20.7449 47.8708 20.2919 47.9554 19.8371C49.3104 12.5159 48.4245 6.61802 45.3991 4.67652C42.4985 2.81446 37.7545 4.75596 32.9633 9.39687C32.4912 9.85522 32.0296 10.3268 31.5788 10.8111C31.277 10.489 30.9698 10.1733 30.6575 9.86389C25.6362 4.90113 20.603 2.81008 17.5809 4.75733C14.683 6.62459 13.8247 12.1694 15.0445 19.1076C15.1659 19.7947 15.3029 20.4783 15.4554 21.1576C14.7433 21.3828 14.0555 21.6227 13.3974 21.878C7.51064 24.1624 3.75098 27.743 3.75098 31.4567C3.75098 35.2926 7.78675 39.14 13.9187 41.4726C14.4159 41.6609 14.9172 41.8353 15.4222 41.9958C15.2582 42.7277 15.1125 43.4645 14.9854 44.2055C13.8224 51.0232 14.7307 56.4365 17.621 58.2923C20.6062 60.2083 25.6165 58.2389 30.4953 53.4919C30.8809 53.1167 31.268 52.7187 31.6556 52.3015C32.1438 52.8258 32.645 53.3348 33.1587 53.828C37.8845 58.3544 42.5517 60.1823 45.4395 58.3216C48.422 56.3998 49.3911 50.5844 48.1326 43.5089C48.0367 42.9685 47.9247 42.4165 47.7992 41.8545C48.1511 41.7389 48.4963 41.6195 48.8332 41.4951C55.2078 39.1444 59.355 35.3438 59.355 31.4567C59.355 27.7296 55.4743 24.1249 49.4689 21.8238Z" fill="#53C1DE"/>
<path d="M48.0862 38.9855C47.7823 39.0975 47.4702 39.2057 47.1523 39.3106C46.4485 36.8309 45.4986 34.1939 44.3366 31.4699C45.4457 28.8102 46.3587 26.2072 47.0428 23.7433C47.6115 23.9269 48.1637 24.12 48.6957 24.324C53.8413 26.2954 56.9799 29.2106 56.9799 31.4567C56.9799 33.8494 53.5901 36.9555 48.0864 38.9855H48.0862ZM45.8025 44.0225C46.3589 47.1511 46.4384 49.9798 46.0698 52.1911C45.7385 54.1781 45.0726 55.5027 44.2492 56.0333C42.4969 57.1624 38.7493 55.6947 34.7081 51.8238C34.2447 51.3801 33.7779 50.9062 33.3098 50.4049C34.8766 48.4974 36.4425 46.2798 37.9707 43.8173C40.6589 43.5519 43.1985 43.1178 45.5015 42.5253C45.6147 43.0348 45.7156 43.5341 45.8025 44.0225ZM22.7076 55.8383C20.9956 56.5113 19.632 56.5305 18.8079 56.0015C17.0538 54.8757 16.3249 50.5287 17.3193 44.6985C17.4376 44.0095 17.573 43.3243 17.7254 42.6436C20.0029 43.2043 22.524 43.6078 25.2186 43.851C26.7569 46.2606 28.368 48.4755 29.9916 50.4151C29.6466 50.7866 29.2933 51.1487 28.9323 51.5009C26.7748 53.6001 24.613 55.0891 22.7078 55.8383H22.7076ZM14.687 38.9707C11.9756 37.9392 9.73651 36.5986 8.20169 35.1359C6.82264 33.8211 6.12622 32.516 6.12622 31.4567C6.12622 29.2032 9.14493 26.3285 14.1795 24.3747C14.8115 24.1305 15.4497 23.907 16.0933 23.7044C16.7893 26.2236 17.702 28.8576 18.8035 31.5211C17.6877 34.2243 16.762 36.9002 16.0596 39.449C15.5986 39.3021 15.1409 39.1426 14.687 38.9707ZM17.3757 18.5998C16.3306 12.6551 17.0245 8.17083 18.771 7.0456C20.6314 5.84696 24.7447 7.55617 29.0802 11.841C29.3572 12.1149 29.6356 12.4017 29.9144 12.6983C28.2991 14.6292 26.7027 16.8273 25.1778 19.223C22.5626 19.4928 20.0592 19.9261 17.7579 20.5065C17.6161 19.8745 17.4887 19.2387 17.3757 18.5995V18.5998ZM41.3607 25.1921C40.8171 24.1469 40.2534 23.115 39.6699 22.0968C41.4441 22.3461 43.1438 22.6775 44.7399 23.0832C44.2608 24.7927 43.6636 26.5803 42.9602 28.4127C42.4464 27.3274 41.9131 26.2537 41.3607 25.1921ZM31.5796 14.5878C32.6752 15.9089 33.7725 17.3842 34.8518 18.9846C32.6624 18.8695 30.4693 18.8689 28.2799 18.983C29.3602 17.3973 30.4668 15.9242 31.5796 14.5878ZM21.7358 25.2101C21.1903 26.2633 20.667 27.3305 20.1663 28.4108C19.4745 26.5846 18.8827 24.7891 18.3994 23.0553C19.9859 22.66 21.6777 22.3371 23.4404 22.0919C22.8504 23.1163 22.282 24.156 21.7358 25.2101ZM23.4911 41.0103C21.6701 40.784 19.9527 40.4775 18.3667 40.0932C18.8576 38.3287 19.4625 36.4945 20.169 34.6292C20.6718 35.7103 21.1974 36.7782 21.7454 37.8318C22.3045 38.9066 22.8866 39.9664 23.4911 41.0103ZM31.6453 48.5125C30.5195 47.1602 29.3966 45.6646 28.2998 44.0559C29.3644 44.1025 30.4499 44.126 31.553 44.126C32.6865 44.126 33.8069 44.0978 34.9096 44.043C33.8269 45.681 32.7335 47.1788 31.6453 48.5125ZM42.9829 34.5341C43.7261 36.4198 44.3526 38.244 44.8502 39.9787C43.2378 40.3882 41.4973 40.718 39.6632 40.9629C40.2509 39.9258 40.8201 38.8757 41.3703 37.8134C41.9296 36.7338 42.4673 35.6404 42.9829 34.5341ZM39.3126 36.4926C38.4703 38.1213 37.5806 39.7191 36.645 41.2834C34.9953 41.4146 33.2904 41.4822 31.553 41.4822C29.8228 41.4822 28.1396 41.4222 26.5187 41.3053C25.5588 39.7446 24.6523 38.1441 23.8012 36.5071C22.954 34.8789 22.1627 33.2154 21.4289 31.5203C22.1608 29.8247 22.9497 28.1603 23.794 26.5307V26.5312C24.6381 24.9013 25.5374 23.3076 26.4901 21.7536C28.1438 21.6145 29.8393 21.5416 31.5533 21.5416C33.2749 21.5416 34.9726 21.615 36.6258 21.7553C37.5689 23.3069 38.4625 24.895 39.3049 26.5167C40.1521 28.1427 40.9516 29.7989 41.702 31.4827C40.9593 33.1837 40.1624 34.8548 39.3128 36.4926H39.3126ZM44.2128 6.96699C46.0747 8.16234 46.7989 12.9824 45.629 19.3035C45.5523 19.7153 45.469 20.1255 45.379 20.5339C43.0722 19.9414 40.5671 19.5004 37.9443 19.2265C36.4164 16.8048 34.8333 14.6029 33.2441 12.697C33.6606 12.2501 34.0869 11.8148 34.5228 11.3915C38.6279 7.41483 42.4646 5.84476 44.2128 6.96699Z" fill="white"/>
<path d="M31.5531 25.93C34.2955 25.93 36.5183 28.4045 36.5183 31.4567C36.5183 34.5092 34.2955 36.9837 31.5531 36.9837C28.811 36.9837 26.5879 34.5092 26.5879 31.4567C26.5879 28.4045 28.811 25.93 31.5531 25.93Z" fill="#53C1DE"/>
</svg>
