<svg width="68" height="68" viewBox="0 0 68 68" fill="none" xmlns="http://www.w3.org/2000/svg">
<path d="M46.795 28.542H21.207V65.432H46.795V28.542Z" fill="#FF9933"/>
<path d="M28.6909 28.547H21.2109V65.437H28.6909V28.547Z" fill="#EF8626"/>
<path d="M46.795 28.542H21.207V34.981H46.795V28.542Z" fill="#2297F3"/>
<path d="M28.6909 28.547H21.2109V34.977H28.6909V28.547Z" fill="#0E88DB"/>
<path d="M43.0265 43.0046V65.432H24.9753V43.0046C24.9753 41.6611 26.0644 40.5719 27.408 40.5719H40.5938C41.9374 40.5719 43.0265 41.6611 43.0265 43.0046Z" fill="#2297F3"/>
<path d="M32.7112 40.5768C31.3612 40.5768 30.2712 41.6568 30.2712 43.0068V65.4368H24.9712V43.0068C24.9712 41.6568 26.0612 40.5768 27.4112 40.5768H32.7112Z" fill="#0E88DB"/>
<path d="M39.3015 53.7277V65.432H28.696V53.7277C28.696 50.6629 30.2964 47.8205 32.9169 46.231L33.4436 45.9116C33.7848 45.7046 34.2128 45.7046 34.5539 45.9116L35.0806 46.231C37.7011 47.8205 39.3015 50.6629 39.3015 53.7277Z" fill="#D9DEFB"/>
<path d="M36.0012 46.8768C33.9412 48.5368 32.7112 51.0468 32.7112 53.7268V65.4368H28.6912V53.7268C28.6912 50.6668 30.3012 47.8168 32.9212 46.2268L33.4412 45.9068C33.7812 45.7068 34.2112 45.7068 34.5512 45.9068L35.0812 46.2268C35.4012 46.4268 35.7112 46.6368 36.0012 46.8768Z" fill="#C5CCED"/>
<path d="M46.3442 28.5418C46.8913 28.5418 47.411 28.246 47.657 27.7572C48.6892 25.7063 49.3084 23.415 49.3084 20.9619C49.3084 12.4955 34.001 5.65472 34.001 5.65472C34.001 5.65472 18.6936 12.4955 18.6936 20.9619C18.6936 23.415 19.3128 25.7063 20.345 27.7572C20.591 28.246 21.1107 28.5418 21.6578 28.5418H46.3442Z" fill="#FF9933"/>
<path d="M27.7212 20.9668C27.7212 23.4168 28.3412 25.7068 29.3712 27.7568C29.6212 28.2468 30.1412 28.5468 30.6812 28.5468H21.6612C21.1112 28.5468 20.5912 28.2468 20.3412 27.7568C19.3112 25.7068 18.6912 23.4168 18.6912 20.9668C18.6912 12.4968 34.0012 5.6568 34.0012 5.6568C34.0012 5.6568 35.9812 6.5368 38.5112 8.0668C33.9912 10.7868 27.7212 15.5468 27.7212 20.9668Z" fill="#EF8626"/>
<path d="M21.2068 36.9991V65.432H4.3772V40.127C4.3772 38.3995 5.7775 36.9991 7.505 36.9991H21.2068Z" fill="#FF9933"/>
<path d="M13.4111 36.9968C11.6811 36.9968 10.2811 38.3968 10.2811 40.1268V65.4368H4.3811V40.1268C4.3811 38.3968 5.7811 36.9968 7.5011 36.9968H13.4111Z" fill="#EF8626"/>
<path d="M15.8557 45.2351V47.7568C15.8557 48.3396 15.3832 48.8121 14.8004 48.8121H10.7836C10.2007 48.8121 9.72827 48.3396 9.72827 47.7568V45.2351C9.72827 43.5431 11.0999 42.1714 12.792 42.1714C14.484 42.1714 15.8557 43.5431 15.8557 45.2351ZM15.8557 57.0968V59.6185C15.8557 60.2013 15.3832 60.6738 14.8004 60.6738H10.7836C10.2007 60.6738 9.72827 60.2013 9.72827 59.6185V57.0968C9.72827 55.4048 11.0999 54.0331 12.792 54.0331C14.484 54.0331 15.8557 55.4048 15.8557 57.0968Z" fill="#2297F3"/>
<path d="M13.4612 48.8168H10.7812C10.2012 48.8168 9.7312 48.3368 9.7312 47.7568V45.2368C9.7312 43.5468 11.1012 42.1668 12.7912 42.1668C13.2712 42.1668 13.7312 42.2768 14.1312 42.4768C13.1112 42.9768 12.4112 44.0268 12.4112 45.2368V47.7568C12.4112 48.3368 12.8812 48.8168 13.4612 48.8168ZM13.4612 60.6768H10.7812C10.2012 60.6768 9.7312 60.1968 9.7312 59.6168V57.0968C9.7312 55.4068 11.1012 54.0368 12.7912 54.0368C13.2712 54.0368 13.7312 54.1468 14.1312 54.3468C13.1112 54.8468 12.4112 55.8868 12.4112 57.0968V59.6168C12.4112 60.1968 12.8812 60.6768 13.4612 60.6768Z" fill="#0E88DB"/>
<path d="M13.4612 48.8168H10.7812C10.2012 48.8168 9.7312 48.3368 9.7312 47.7568V45.2368C9.7312 43.5468 11.1012 42.1668 12.7912 42.1668C13.2712 42.1668 13.7312 42.2768 14.1312 42.4768C13.1112 42.9768 12.4112 44.0268 12.4112 45.2368V47.7568C12.4112 48.3368 12.8812 48.8168 13.4612 48.8168ZM13.4612 60.6768H10.7812C10.2012 60.6768 9.7312 60.1968 9.7312 59.6168V57.0968C9.7312 55.4068 11.1012 54.0368 12.7912 54.0368C13.2712 54.0368 13.7312 54.1468 14.1312 54.3468C13.1112 54.8468 12.4112 55.8868 12.4112 57.0968V59.6168C12.4112 60.1968 12.8812 60.6768 13.4612 60.6768Z" fill="#0E88DB"/>
<path d="M16.4249 33.2H9.15894V36.997H16.4249V33.2Z" fill="#2297F3"/>
<path d="M17.1463 33.2039C17.3393 33.2039 17.5226 33.0995 17.6094 32.9271C17.9735 32.2035 18.192 31.3952 18.192 30.5298C18.192 27.5431 12.7919 25.1298 12.7919 25.1298C12.7919 25.1298 7.39185 27.5431 7.39185 30.5298C7.39185 31.3952 7.61025 32.2035 7.97445 32.9271C8.06115 33.0995 8.24455 33.2039 8.43755 33.2039H17.1463Z" fill="#2297F3"/>
<path d="M12.7909 33.197H9.16089V36.997H12.7909V33.197Z" fill="#0E88DB"/>
<path d="M11.0211 30.5268C11.0211 31.3968 11.2411 32.2068 11.6111 32.9268C11.6811 33.0768 11.8311 33.1768 12.0011 33.1968H12.7911V33.2068H8.44111C8.24111 33.2068 8.06111 33.0968 7.97111 32.9268C7.61111 32.2068 7.39111 31.3968 7.39111 30.5268C7.39111 27.5468 12.7911 25.1268 12.7911 25.1268C12.7911 25.1268 13.6111 25.4868 14.6111 26.1168C13.0411 27.0868 11.0211 28.7068 11.0211 30.5268Z" fill="#0E88DB"/>
<path d="M12.0012 33.1968H12.7912V33.2068H12.0712C12.0512 33.2068 12.0212 33.2068 12.0012 33.1968Z" fill="#0E88DB"/>
<path d="M46.7949 36.9991V65.432H63.6245V40.127C63.6245 38.3995 62.2241 36.9991 60.4967 36.9991H46.7949Z" fill="#FF9933"/>
<path d="M53.281 36.997H46.791V65.437H53.281V36.997Z" fill="#EF8626"/>
<path d="M52.146 45.2351V47.7568C52.146 48.3396 52.6185 48.8121 53.2013 48.8121H57.2181C57.8009 48.8121 58.2734 48.3396 58.2734 47.7568V45.2351C58.2734 43.5431 56.9017 42.1714 55.2097 42.1714C53.5177 42.1714 52.146 43.5431 52.146 45.2351ZM52.146 57.0968V59.6185C52.146 60.2013 52.6185 60.6738 53.2013 60.6738H57.2181C57.8009 60.6738 58.2734 60.2013 58.2734 59.6185V57.0968C58.2734 55.4048 56.9017 54.0331 55.2097 54.0331C53.5177 54.0331 52.146 55.4048 52.146 57.0968Z" fill="#2297F3"/>
<path d="M55.876 48.8168H53.196C52.616 48.8168 52.146 48.3368 52.146 47.7568V45.2368C52.146 43.5468 53.5161 42.1668 55.2061 42.1668C55.686 42.1668 56.146 42.2768 56.546 42.4768C55.526 42.9768 54.8261 44.0268 54.8261 45.2368V47.7568C54.8261 48.3368 55.296 48.8168 55.876 48.8168ZM55.876 60.6768H53.196C52.616 60.6768 52.146 60.1968 52.146 59.6168V57.0968C52.146 55.4068 53.5161 54.0368 55.2061 54.0368C55.686 54.0368 56.146 54.1468 56.546 54.3468C55.526 54.8468 54.8261 55.8868 54.8261 57.0968V59.6168C54.8261 60.1968 55.296 60.6768 55.876 60.6768Z" fill="#0E88DB"/>
<path d="M58.8429 33.2H51.5769V36.997H58.8429V33.2Z" fill="#2297F3"/>
<path d="M50.8555 33.2039C50.6625 33.2039 50.4792 33.0995 50.3924 32.9271C50.0282 32.2035 49.8098 31.3952 49.8098 30.5298C49.8098 27.5431 55.2099 25.1298 55.2099 25.1298C55.2099 25.1298 60.61 27.5431 60.61 30.5298C60.61 31.3952 60.3916 32.2035 60.0274 32.9271C59.9407 33.0995 59.7573 33.2039 59.5643 33.2039H50.8555Z" fill="#2297F3"/>
<path d="M55.2111 33.197H51.5811V36.997H55.2111V33.197Z" fill="#0E88DB"/>
<path d="M53.441 30.5268C53.441 31.3968 53.661 32.2068 54.021 32.9268C54.101 33.0768 54.251 33.1768 54.421 33.1968H55.211V33.2068H50.851C50.661 33.2068 50.481 33.0968 50.391 32.9268C50.031 32.2068 49.811 31.3968 49.811 30.5268C49.811 27.5468 55.211 25.1268 55.211 25.1268C55.211 25.1268 56.031 25.4868 57.031 26.1168C55.461 27.0868 53.441 28.7068 53.441 30.5268Z" fill="#0E88DB"/>
<path d="M54.4211 33.1968H55.2111V33.2068H54.4911C54.4711 33.2068 54.4411 33.2068 54.4211 33.1968Z" fill="#0E88DB"/>
<path d="M12.792 41.1711C10.5513 41.1711 8.72803 42.9943 8.72803 45.2356V47.7571C8.72803 48.8899 9.65043 49.8118 10.7837 49.8118H14.8003C15.9341 49.8118 16.856 48.8899 16.856 47.7571V45.2356C16.856 42.9944 15.0327 41.1711 12.792 41.1711ZM14.8003 47.8117L10.728 47.757V45.2355C10.728 44.0968 11.6538 43.171 12.792 43.171C13.9302 43.171 14.856 44.0968 14.856 45.2355L14.8003 47.8117ZM12.792 53.0334C10.5513 53.0334 8.72803 54.8566 8.72803 57.0969V59.6184C8.72803 60.7522 9.65043 61.6741 10.7837 61.6741H14.8003C15.9341 61.6741 16.856 60.7522 16.856 59.6184V57.0969C16.856 54.8567 15.0327 53.0334 12.792 53.0334ZM14.8003 59.674L10.728 59.6183V57.0968C10.728 55.9591 11.6538 55.0333 12.792 55.0333C13.9302 55.0333 14.856 55.9591 14.856 57.0968L14.8003 59.674ZM55.2095 41.1711C52.9693 41.1711 51.146 42.9943 51.146 45.2356V47.7571C51.146 48.8899 52.0679 49.8118 53.2017 49.8118H57.2183C58.3511 49.8118 59.273 48.8899 59.273 47.7571V45.2356C59.273 42.9944 57.4497 41.1711 55.2095 41.1711ZM57.2183 47.8117L53.146 47.757V45.2355C53.146 44.0968 54.0718 43.171 55.2095 43.171C56.3472 43.171 57.273 44.0968 57.273 45.2355L57.2183 47.8117ZM55.2095 53.0334C52.9693 53.0334 51.146 54.8566 51.146 57.0969V59.6184C51.146 60.7522 52.0679 61.6741 53.2017 61.6741H57.2183C58.3511 61.6741 59.273 60.7522 59.273 59.6184V57.0969C59.273 54.8567 57.4497 53.0334 55.2095 53.0334ZM57.2183 59.674L53.146 59.6183V57.0968C53.146 55.9591 54.0718 55.0333 55.2095 55.0333C56.3472 55.0333 57.273 55.9591 57.273 57.0968L57.2183 59.674Z" fill="#060606"/>
<path d="M66 64.43H64.62V40.13C64.62 37.85 62.77 36 60.5 36H59.84V34.17C60.3 34.08 60.71 33.79 60.92 33.38C61.38 32.47 61.61 31.51 61.61 30.53C61.61 27 56.23 24.49 55.6199 24.22C55.36 24.1 55.0599 24.1 54.8 24.22C54.19 24.49 48.81 27 48.81 30.53C48.81 31.51 49.04 32.47 49.5 33.38C49.71 33.8 50.12 34.08 50.58 34.17V36H47.79V29.06C48.11 28.83 48.38 28.55 48.55 28.21C49.72 25.89 50.3099 23.45 50.3099 20.96C50.3099 12.84 37.9199 6.42001 34.9999 5.02001V2.57001C34.9999 2.02001 34.5499 1.57001 33.9999 1.57001C33.4499 1.57001 32.9999 2.02001 32.9999 2.57001V5.02001C30.0799 6.42001 17.6899 12.84 17.6899 20.96C17.6899 23.45 18.2899 25.89 19.4499 28.21C19.6299 28.55 19.8899 28.83 20.2099 29.06V36H17.4299V34.17C17.8799 34.08 18.2899 33.79 18.4998 33.38C18.9598 32.47 19.1898 31.51 19.1898 30.53C19.1898 27 13.8098 24.49 13.1998 24.22C12.9398 24.1 12.6398 24.1 12.3798 24.22C11.7698 24.49 6.3898 27 6.3898 30.53C6.3898 31.51 6.6198 32.47 7.0798 33.37C7.2898 33.79 7.6998 34.08 8.1598 34.17V36H7.5C5.23 36 3.38 37.85 3.38 40.1299V64.4299H2C1.45 64.4299 1 64.8799 1 65.4299C1 65.9799 1.45 66.4299 2 66.4299H66C66.55 66.4299 67 65.9799 67 65.4299C67 64.88 66.55 64.43 66 64.43ZM12.79 26.24C14.27 26.98 17.19 28.8 17.19 30.53C17.19 31.1 17.07 31.66 16.84 32.2H16.45C16.44 32.2 16.43 32.2 16.43 32.2H8.74C8.51 31.66 8.39 31.1 8.39 30.53C8.39 28.81 11.32 26.98 12.79 26.24ZM15.4301 34.2V36H10.1601V34.2H15.4301ZM20.21 64.43H5.38V40.13C5.38 38.95 6.33 38 7.5 38H20.21V64.43ZM55.21 26.24C56.69 26.98 59.61 28.8 59.61 30.53C59.61 31.1 59.49 31.66 59.26 32.2H51.16C50.93 31.66 50.81 31.1 50.81 30.53C50.81 28.81 53.73 26.98 55.21 26.24ZM57.84 34.2V36H52.58V34.2H57.84ZM38.3 64.43H29.7V53.73C29.7 51.0124 31.0995 48.3126 34.04 46.77C37.0067 48.5959 38.3 50.9663 38.3 53.73V64.43ZM42.03 64.43H40.3V53.73C40.3 50.3837 38.7065 47.2552 35.07 45.06C34.41 44.66 33.59 44.66 32.93 45.06C29.2769 47.2651 27.7 50.4044 27.7 53.73V64.43H25.98V43.01C25.98 42.22 26.62 41.57 27.41 41.57H40.59C41.38 41.57 42.03 42.22 42.03 43.01V64.43ZM45.79 64.43H44.03V43.01C44.03 41.11 42.49 39.57 40.59 39.57H27.41C25.52 39.57 23.98 41.11 23.98 43.01V64.43H22.21V35.98H45.79V64.43ZM45.79 33.98H22.21V29.54H45.79V33.98ZM46.34 27.54H21.66C21.48 27.54 21.31 27.45 21.24 27.31C20.21 25.27 19.69 23.14 19.69 20.96C19.69 13.98 31.62 7.90001 34 6.76001C36.38 7.90001 48.31 13.98 48.31 20.96C48.31 23.14 47.79 25.27 46.76 27.31C46.69 27.45 46.52 27.54 46.34 27.54ZM62.62 64.43H47.79V38H60.5C61.67 38 62.62 38.95 62.62 40.1299V64.43Z" fill="#060606"/>
</svg>
