<svg width="18" height="204" viewBox="0 0 18 204" fill="none" xmlns="http://www.w3.org/2000/svg">
<path d="M4.82 8.25C4.82 7.29 5.045 6.465 5.495 5.775C5.955 5.095 6.585 4.62 7.385 4.35L7.91 5.25C7.26 5.44 6.75 5.79 6.38 6.3C6.02 6.81 5.84 7.465 5.84 8.265C5.84 9.045 6.01 9.65 6.35 10.08C6.7 10.52 7.16 10.74 7.73 10.74C8.28 10.74 8.695 10.54 8.975 10.14C9.255 9.74 9.545 9.08 9.845 8.16C10.205 7.07 10.495 6.35 10.715 6C11.195 5.2 11.89 4.8 12.8 4.8C13.69 4.8 14.39 5.11 14.9 5.73C15.42 6.35 15.68 7.115 15.68 8.025C15.68 8.845 15.465 9.555 15.035 10.155C14.615 10.755 14.075 11.2 13.415 11.49L12.92 10.605C14.08 10.125 14.66 9.265 14.66 8.025C14.66 7.375 14.5 6.85 14.18 6.45C13.86 6.05 13.415 5.85 12.845 5.85C12.325 5.85 11.935 6.03 11.675 6.39C11.415 6.75 11.15 7.345 10.88 8.175C10.75 8.555 10.655 8.825 10.595 8.985C10.545 9.155 10.455 9.395 10.325 9.705C10.205 10.025 10.095 10.26 9.995 10.41C9.905 10.56 9.775 10.74 9.605 10.95C9.445 11.17 9.28 11.325 9.11 11.415C8.95 11.515 8.75 11.6 8.51 11.67C8.28 11.75 8.03 11.79 7.76 11.79C6.87 11.79 6.155 11.465 5.615 10.815C5.085 10.165 4.82 9.31 4.82 8.25ZM4.82 18.4243C4.82 16.8343 5.345 15.5193 6.395 14.4793C7.445 13.4393 8.73 12.9193 10.25 12.9193C11.77 12.9193 13.055 13.4393 14.105 14.4793C15.155 15.5193 15.68 16.8343 15.68 18.4243C15.68 19.3943 15.445 20.2843 14.975 21.0943C14.515 21.9043 13.89 22.5293 13.1 22.9693L12.56 22.0393C13.2 21.7093 13.71 21.2193 14.09 20.5693C14.47 19.9193 14.66 19.2043 14.66 18.4243C14.66 17.1143 14.235 16.0443 13.385 15.2143C12.535 14.3843 11.49 13.9693 10.25 13.9693C9.01 13.9693 7.965 14.3843 7.115 15.2143C6.265 16.0443 5.84 17.1143 5.84 18.4243C5.84 19.2043 6.03 19.9193 6.41 20.5693C6.79 21.2193 7.3 21.7093 7.94 22.0393L7.415 22.9693C6.625 22.5393 5.995 21.9143 5.525 21.0943C5.055 20.2843 4.82 19.3943 4.82 18.4243ZM5 31.1461L9.2 28.6861V25.7461H5V24.6961H15.5V28.8961C15.5 29.7661 15.19 30.5061 14.57 31.1161C13.96 31.7361 13.22 32.0461 12.35 32.0461C11.64 32.0461 11.005 31.8311 10.445 31.4011C9.895 30.9811 9.525 30.4411 9.335 29.7811L5 32.3461V31.1461ZM14.51 25.7461H10.19V28.8961C10.19 29.4761 10.4 29.9711 10.82 30.3811C11.25 30.7911 11.76 30.9961 12.35 30.9961C12.95 30.9961 13.46 30.7911 13.88 30.3811C14.3 29.9711 14.51 29.4761 14.51 28.8961V25.7461ZM6.395 42.5364C5.345 41.4864 4.82 40.2014 4.82 38.6814C4.82 37.1614 5.345 35.8764 6.395 34.8264C7.455 33.7764 8.74 33.2514 10.25 33.2514C11.76 33.2514 13.04 33.7764 14.09 34.8264C15.15 35.8764 15.68 37.1614 15.68 38.6814C15.68 40.2014 15.15 41.4864 14.09 42.5364C13.04 43.5864 11.76 44.1114 10.25 44.1114C8.74 44.1114 7.455 43.5864 6.395 42.5364ZM7.115 35.5614C6.265 36.4014 5.84 37.4414 5.84 38.6814C5.84 39.9214 6.265 40.9614 7.115 41.8014C7.975 42.6414 9.02 43.0614 10.25 43.0614C11.48 43.0614 12.52 42.6414 13.37 41.8014C14.23 40.9614 14.66 39.9214 14.66 38.6814C14.66 37.4414 14.23 36.4014 13.37 35.5614C12.52 34.7214 11.48 34.3014 10.25 34.3014C9.02 34.3014 7.975 34.7214 7.115 35.5614ZM5.99 46.957V51.757H5V45.907H15.5V46.957H5.99ZM5.99 54.3105V59.1105H5V53.2605H15.5V54.3105H5.99ZM15.5 68.4141C15.5 69.8441 14.99 71.0241 13.97 71.9541C12.96 72.8941 11.72 73.3641 10.25 73.3641C8.78 73.3641 7.535 72.8941 6.515 71.9541C5.505 71.0241 5 69.8441 5 68.4141V64.3641H15.5V68.4141ZM5.99 68.4141C5.99 69.5641 6.4 70.5041 7.22 71.2341C8.04 71.9741 9.05 72.3441 10.25 72.3441C11.45 72.3441 12.46 71.9741 13.28 71.2341C14.1 70.5041 14.51 69.5641 14.51 68.4141V65.4141H5.99V68.4141ZM6.395 83.845C5.345 82.795 4.82 81.51 4.82 79.99C4.82 78.47 5.345 77.185 6.395 76.135C7.455 75.085 8.74 74.56 10.25 74.56C11.76 74.56 13.04 75.085 14.09 76.135C15.15 77.185 15.68 78.47 15.68 79.99C15.68 81.51 15.15 82.795 14.09 83.845C13.04 84.895 11.76 85.42 10.25 85.42C8.74 85.42 7.455 84.895 6.395 83.845ZM7.115 76.87C6.265 77.71 5.84 78.75 5.84 79.99C5.84 81.23 6.265 82.27 7.115 83.11C7.975 83.95 9.02 84.37 10.25 84.37C11.48 84.37 12.52 83.95 13.37 83.11C14.23 82.27 14.66 81.23 14.66 79.99C14.66 78.75 14.23 77.71 13.37 76.87C12.52 76.03 11.48 75.61 10.25 75.61C9.02 75.61 7.975 76.03 7.115 76.87ZM5 89.0565L15.5 86.0115V87.1215L6.425 89.7165L15.5 92.4465V93.6765L6.425 96.4065L15.5 99.0015V100.112L5 97.0665V95.8065L14.12 93.0615L5 90.3165V89.0565ZM15.5 108.512V109.562H5V108.662L13.55 102.812H5V101.762H15.5V102.662L6.95 108.512H15.5Z" fill="white" fill-opacity="0.85"/>
<path d="M8.99998 131L8.99998 204" stroke="white" stroke-opacity="0.85" stroke-width="3"/>
</svg>
