<svg width="185" height="185" viewBox="0 0 185 185" fill="none" xmlns="http://www.w3.org/2000/svg">
<g filter="url(#filter0_dd)">
<circle cx="92.5" cy="92.5" r="66.5" fill="#181818"/>
</g>
<path d="M92.4475 97.729C95.3586 97.729 97.7185 95.3691 97.7185 92.458C97.7185 89.5469 95.3586 87.187 92.4475 87.187C89.5364 87.187 87.1765 89.5469 87.1765 92.458C87.1765 95.3691 89.5364 97.729 92.4475 97.729Z" fill="#00D8FF"/>
<path d="M92.4475 104.533C85.045 104.533 78.577 103.661 73.7365 102.002C70.597 100.931 67.93 99.5035 66.0295 97.876C64.0135 96.154 62.9425 94.2745 62.9425 92.458C62.9425 88.972 66.7645 85.5595 73.18 83.3335C78.43 81.5065 85.276 80.488 92.437 80.488C99.472 80.488 106.223 81.475 111.442 83.281C114.497 84.331 117.07 85.696 118.897 87.208C120.881 88.867 121.931 90.6835 121.931 92.458C121.931 96.0805 117.658 99.745 110.77 102.023C105.898 103.64 99.388 104.533 92.4475 104.533ZM92.4475 83.008C85.654 83.008 78.934 83.995 74.02 85.7065C68.119 87.7645 65.473 90.5785 65.473 92.458C65.473 94.411 68.3185 97.4875 74.5555 99.619C79.1335 101.183 85.3285 102.013 92.4475 102.013C99.1255 102.013 105.352 101.173 109.982 99.6295C116.461 97.477 119.422 94.4005 119.422 92.458C119.422 91.4605 118.666 90.2845 117.29 89.14C115.705 87.817 113.395 86.6095 110.633 85.654C105.667 83.953 99.2095 83.008 92.4475 83.008Z" fill="#00D8FF"/>
<path d="M80.4881 118.729C79.4171 118.729 78.4721 118.498 77.6741 118.036C74.6606 116.293 73.6106 111.274 74.8811 104.607C75.9206 99.136 78.4616 92.71 82.0421 86.5045C85.5596 80.4145 89.7806 75.0595 93.9491 71.437C96.3851 69.316 98.8526 67.762 101.079 66.943C103.504 66.0505 105.604 66.0505 107.137 66.9325C110.277 68.7385 111.316 74.2825 109.846 81.3805C108.807 86.4205 106.329 92.5 102.864 98.5165C99.1676 104.922 95.1776 110.088 91.3241 113.458C88.8251 115.642 86.2526 117.238 83.9006 118.068C82.6721 118.509 81.5171 118.729 80.4881 118.729ZM83.1236 87.1345L84.2156 87.7645C80.8241 93.6445 78.3146 99.955 77.3486 105.079C76.1831 111.222 77.3066 114.918 78.9236 115.852C79.3226 116.083 79.8476 116.209 80.4881 116.209C82.5776 116.209 85.8641 114.886 89.6651 111.568C93.3086 108.387 97.1201 103.431 100.68 97.267C104.019 91.4815 106.392 85.6645 107.379 80.887C108.754 74.1985 107.568 70.1035 105.877 69.127C105.016 68.6335 103.62 68.6965 101.94 69.316C99.9971 70.03 97.8026 71.4265 95.5976 73.348C91.6391 76.792 87.5966 81.916 84.2156 87.775L83.1236 87.1345Z" fill="#00D8FF"/>
<path d="M104.407 118.761C101.551 118.761 97.9284 117.039 94.1485 113.784C89.9275 110.151 85.6329 104.743 82.0419 98.5375C78.5139 92.4475 75.9939 86.116 74.9334 80.6875C74.3139 77.5165 74.1984 74.608 74.5974 72.2665C75.0384 69.715 76.0779 67.8985 77.6214 67.006C80.7504 65.1895 86.0739 67.0585 91.4919 71.878C95.3349 75.2905 99.3669 80.4775 102.842 86.4835C106.549 92.8885 109.037 98.926 110.024 103.945C110.665 107.2 110.77 110.224 110.318 112.681C109.835 115.296 108.743 117.154 107.168 118.068C106.381 118.53 105.446 118.761 104.407 118.761ZM84.2259 97.2775C87.6279 103.158 91.8489 108.481 95.7969 111.873C100.532 115.947 104.291 116.829 105.919 115.884C107.609 114.907 108.848 110.907 107.567 104.439C106.622 99.6925 104.239 93.9175 100.669 87.754C97.3194 81.9685 93.4659 77.002 89.8224 73.768C84.7194 69.232 80.5824 68.2135 78.8919 69.19C78.0309 69.6835 77.3904 70.933 77.0859 72.697C76.7394 74.734 76.8444 77.338 77.4114 80.2045C78.4194 85.36 80.8344 91.4185 84.2259 97.2775Z" fill="#00D8FF"/>
<defs>
<filter id="filter0_dd" x="0" y="0" width="185" height="185" filterUnits="userSpaceOnUse" color-interpolation-filters="sRGB">
<feFlood flood-opacity="0" result="BackgroundImageFix"/>
<feColorMatrix in="SourceAlpha" type="matrix" values="0 0 0 0 0 0 0 0 0 0 0 0 0 0 0 0 0 0 127 0" result="hardAlpha"/>
<feOffset dx="6" dy="6"/>
<feGaussianBlur stdDeviation="10"/>
<feComposite in2="hardAlpha" operator="out"/>
<feColorMatrix type="matrix" values="0 0 0 0 0 0 0 0 0 0 0 0 0 0 0 0 0 0 1 0"/>
<feBlend mode="normal" in2="BackgroundImageFix" result="effect1_dropShadow"/>
<feColorMatrix in="SourceAlpha" type="matrix" values="0 0 0 0 0 0 0 0 0 0 0 0 0 0 0 0 0 0 127 0" result="hardAlpha"/>
<feOffset dx="-6" dy="-6"/>
<feGaussianBlur stdDeviation="10"/>
<feComposite in2="hardAlpha" operator="out"/>
<feColorMatrix type="matrix" values="0 0 0 0 0.541667 0 0 0 0 0.541667 0 0 0 0 0.541667 0 0 0 0.1 0"/>
<feBlend mode="normal" in2="effect1_dropShadow" result="effect2_dropShadow"/>
<feBlend mode="normal" in="SourceGraphic" in2="effect2_dropShadow" result="shape"/>
</filter>
</defs>
</svg>
