<svg width="130" height="130" viewBox="0 0 130 130" fill="none" xmlns="http://www.w3.org/2000/svg">
<path d="M113.75 54.1667C113.75 92.0833 65 124.583 65 124.583C65 124.583 16.25 92.0833 16.25 54.1667C16.25 41.2374 21.3861 28.8376 30.5285 19.6952C39.6709 10.5528 52.0707 5.41667 65 5.41667C77.9293 5.41667 90.3291 10.5528 99.4714 19.6952C108.614 28.8376 113.75 41.2374 113.75 54.1667Z" stroke="#08FDD8" stroke-width="4" stroke-linecap="round" stroke-linejoin="round"/>
<circle cx="65" cy="55" r="36" stroke="#FF0B56" stroke-width="4"/>
<path d="M59.3118 73.6879C55.8451 73.6879 52.9284 72.9213 50.5618 71.3879C48.1951 69.8213 46.5284 67.7046 45.5618 65.0379L51.4618 61.5879C52.8284 65.1546 55.5118 66.9379 59.5118 66.9379C61.4451 66.9379 62.8618 66.5879 63.7618 65.8879C64.6618 65.1879 65.1118 64.3046 65.1118 63.2379C65.1118 62.0046 64.5618 61.0546 63.4618 60.3879C62.3618 59.6879 60.3951 58.9379 57.5618 58.1379C55.9951 57.6713 54.6618 57.2046 53.5618 56.7379C52.4951 56.2713 51.4118 55.6546 50.3118 54.8879C49.2451 54.0879 48.4284 53.0879 47.8618 51.8879C47.2951 50.6879 47.0118 49.2879 47.0118 47.6879C47.0118 44.5213 48.1284 42.0046 50.3618 40.1379C52.6284 38.2379 55.3451 37.2879 58.5118 37.2879C61.3451 37.2879 63.8284 37.9879 65.9618 39.3879C68.1284 40.7546 69.8118 42.6713 71.0118 45.1379L65.2118 48.4879C63.8118 45.4879 61.5784 43.9879 58.5118 43.9879C57.0784 43.9879 55.9451 44.3213 55.1118 44.9879C54.3118 45.6213 53.9118 46.4546 53.9118 47.4879C53.9118 48.5879 54.3618 49.4879 55.2618 50.1879C56.1951 50.8546 57.9618 51.5879 60.5618 52.3879C61.6284 52.7213 62.4284 52.9879 62.9618 53.1879C63.5284 53.3546 64.2784 53.6379 65.2118 54.0379C66.1784 54.4046 66.9118 54.7546 67.4118 55.0879C67.9451 55.4213 68.5451 55.8713 69.2118 56.4379C69.8784 57.0046 70.3784 57.5879 70.7118 58.1879C71.0784 58.7879 71.3784 59.5213 71.6118 60.3879C71.8784 61.2213 72.0118 62.1379 72.0118 63.1379C72.0118 66.3713 70.8284 68.9379 68.4618 70.8379C66.1284 72.7379 63.0784 73.6879 59.3118 73.6879ZM81.9856 72.3879C81.1522 73.2213 80.1522 73.6379 78.9856 73.6379C77.8189 73.6379 76.8189 73.2213 75.9856 72.3879C75.1522 71.5546 74.7356 70.5546 74.7356 69.3879C74.7356 68.2213 75.1522 67.2213 75.9856 66.3879C76.8189 65.5546 77.8189 65.1379 78.9856 65.1379C80.1522 65.1379 81.1522 65.5546 81.9856 66.3879C82.8189 67.2213 83.2356 68.2213 83.2356 69.3879C83.2356 70.5546 82.8189 71.5546 81.9856 72.3879Z" fill="white"/>
</svg>
