<svg width="26" height="25" viewBox="0 0 26 25" fill="none" xmlns="http://www.w3.org/2000/svg">
    <g clip-path="url(#clip0)">
        <path d="M16.9706 22.5353V18.5764C17.0097 18.0886 16.9426 17.5982 16.7736 17.1379C16.6047 16.6775 16.3379 16.2578 15.9909 15.9064C19.2636 15.5484 22.7031 14.3311 22.7031 8.74559C22.7029 7.31734 22.1431 5.94386 21.1397 4.90943C21.6148 3.65987 21.5813 2.27868 21.0459 1.0528C21.0459 1.0528 19.816 0.694757 16.9706 2.56681C14.5817 1.93136 12.0635 1.93136 9.67465 2.56681C6.82922 0.694757 5.59934 1.0528 5.59934 1.0528C5.064 2.27868 5.0304 3.65987 5.50553 4.90943C4.49465 5.95153 3.93432 7.33743 3.94211 8.77628C3.94211 14.3208 7.38163 15.5382 10.6544 15.9371C10.3115 16.2849 10.047 16.6997 9.87821 17.1544C9.70941 17.6091 9.64005 18.0936 9.67465 18.5764V22.5353M9.67465 19.4664C4.46325 21.0009 4.46325 16.909 2.37869 16.3975L9.67465 19.4664Z" stroke="#FF0B56" stroke-width="2" stroke-linecap="round" stroke-linejoin="round" />
    </g>
    <defs>
        <clipPath id="clip0">
            <rect width="25.0147" height="24.5515" fill="white" transform="translate(0.294128 0.0292969)" />
        </clipPath>
    </defs>
</svg>