<svg width="25" height="25" viewBox="0 0 25 25" fill="none" xmlns="http://www.w3.org/2000/svg">
<mask id="path-1-inside-1" fill="white">
<path fill-rule="evenodd" clip-rule="evenodd" d="M1.71796 8.35319C-0.572326 10.6435 -0.572326 14.3569 1.71796 16.6473L8.35319 23.2825C10.6435 25.5728 14.3569 25.5728 16.6473 23.2825L23.2825 16.6473C25.5728 14.3569 25.5728 10.6435 23.2825 8.35319L16.6473 1.71796C14.3569 -0.572326 10.6435 -0.572326 8.35319 1.71796L1.71796 8.35319V8.35319ZM15.4031 15.4031C17.0064 13.7999 17.0064 11.2005 15.4031 9.59733C13.7999 7.99407 11.2005 7.99407 9.59733 9.59733C7.99407 11.2005 7.99407 13.7999 9.59733 15.4031C11.2005 17.0064 13.7999 17.0064 15.4031 15.4031Z"/>
</mask>
<path fill-rule="evenodd" clip-rule="evenodd" d="M1.71796 8.35319C-0.572326 10.6435 -0.572326 14.3569 1.71796 16.6473L8.35319 23.2825C10.6435 25.5728 14.3569 25.5728 16.6473 23.2825L23.2825 16.6473C25.5728 14.3569 25.5728 10.6435 23.2825 8.35319L16.6473 1.71796C14.3569 -0.572326 10.6435 -0.572326 8.35319 1.71796L1.71796 8.35319V8.35319ZM15.4031 15.4031C17.0064 13.7999 17.0064 11.2005 15.4031 9.59733C13.7999 7.99407 11.2005 7.99407 9.59733 9.59733C7.99407 11.2005 7.99407 13.7999 9.59733 15.4031C11.2005 17.0064 13.7999 17.0064 15.4031 15.4031Z" stroke="#FF0B56" stroke-width="4" mask="url(#path-1-inside-1)"/>
</svg>
