<svg width="68" height="63" viewBox="0 0 68 63" fill="none" xmlns="http://www.w3.org/2000/svg">
    <g clip-path="url(#clip0)">
        <path d="M5.30591 21.7796C5.30591 21.7796 5.3059 21.7796 5.3059 21.7796C-0.434978 27.1561 -0.434974 35.8443 5.30591 41.2208L23.1603 57.9416C28.9388 63.353 38.3328 63.353 44.1113 57.9416L61.9657 41.2208C67.7066 35.8443 67.7066 27.1561 61.9657 21.7796L44.1113 5.05878C38.3328 -0.3526 28.9388 -0.352604 23.1603 5.05878L5.30591 21.7796ZM5.30591 21.7796L23.1603 5.05879L5.30591 21.7796ZM42.1306 39.5454C46.8667 35.1102 46.8666 27.8902 42.1306 23.455C37.4321 19.0546 29.8395 19.0546 25.141 23.455C20.4049 27.8902 20.4049 35.1102 25.141 39.5454C29.8395 43.9458 37.4321 43.9458 42.1306 39.5454Z" stroke="#FF0B56" stroke-width="5" />
    </g>
    <defs>
        <clipPath id="clip0">
            <rect width="67.2712" height="63" fill="white" />
        </clipPath>
    </defs>
</svg>