<svg width="26" height="25" viewBox="0 0 26 25" fill="none" xmlns="http://www.w3.org/2000/svg">
<path d="M18.0129 2.07617H7.59007C4.7119 2.07617 2.37868 4.36619 2.37868 7.19106V17.4208C2.37868 20.2457 4.7119 22.5357 7.59007 22.5357H18.0129C20.891 22.5357 23.2243 20.2457 23.2243 17.4208V7.19106C23.2243 4.36619 20.891 2.07617 18.0129 2.07617Z" stroke="#FF0B56" stroke-width="2" stroke-linecap="round" stroke-linejoin="round"/>
<path d="M16.9705 11.6597C17.0992 12.511 16.951 13.3805 16.5471 14.1445C16.1432 14.9085 15.5042 15.528 14.7209 15.9149C13.9376 16.3019 13.05 16.4366 12.1842 16.2998C11.3184 16.1631 10.5186 15.7619 9.89852 15.1533C9.27844 14.5447 8.86967 13.7597 8.73036 12.91C8.59104 12.0602 8.72827 11.189 9.12253 10.4202C9.51678 9.65141 10.148 9.02421 10.9264 8.62781C11.7047 8.23141 12.5906 8.08599 13.4581 8.21223C14.3429 8.34101 15.162 8.74568 15.7945 9.36647C16.427 9.98725 16.8393 10.7912 16.9705 11.6597Z" stroke="#FF0B56" stroke-width="2" stroke-linecap="round" stroke-linejoin="round"/>
<path d="M18.534 6.67773H18.5444" stroke="#FF0B56" stroke-width="2" stroke-linecap="round" stroke-linejoin="round"/>
</svg>
