<svg width="26" height="25" viewBox="0 0 26 25" fill="none" xmlns="http://www.w3.org/2000/svg">
<path d="M16.9706 8.21289C18.6292 8.21289 20.2198 8.85956 21.3926 10.0106C22.5654 11.1617 23.2243 12.7229 23.2243 14.3508V21.5116H19.0552V14.3508C19.0552 13.8081 18.8355 13.2877 18.4446 12.904C18.0537 12.5204 17.5235 12.3048 16.9706 12.3048C16.4177 12.3048 15.8875 12.5204 15.4966 12.904C15.1057 13.2877 14.886 13.8081 14.886 14.3508V21.5116H10.7169V14.3508C10.7169 12.7229 11.3758 11.1617 12.5486 10.0106C13.7214 8.85956 15.312 8.21289 16.9706 8.21289V8.21289Z" stroke="#FF0B56" stroke-width="2" stroke-linecap="round" stroke-linejoin="round"/>
<path d="M6.54781 9.23633H2.37869V21.5121H6.54781V9.23633Z" stroke="#FF0B56" stroke-width="2" stroke-linecap="round" stroke-linejoin="round"/>
<path d="M4.46325 6.16808C5.61452 6.16808 6.54781 5.25208 6.54781 4.12213C6.54781 2.99218 5.61452 2.07617 4.46325 2.07617C3.31198 2.07617 2.37869 2.99218 2.37869 4.12213C2.37869 5.25208 3.31198 6.16808 4.46325 6.16808Z" stroke="#FF0B56" stroke-width="2" stroke-linecap="round" stroke-linejoin="round"/>
</svg>
