<svg width="63" height="63" viewBox="0 0 63 63" fill="none" xmlns="http://www.w3.org/2000/svg">
<g clip-path="url(#clip0)">
<path d="M11.55 1.57513H51.4501C57.8157 1.57513 63.0001 6.75947 63.0001 13.1252V51.4502C63.0001 57.8158 57.8158 63.0003 51.4501 63.0003H11.55C5.18446 63.0003 0 57.8159 0 51.4502V13.1252C0.000123047 6.75947 5.18446 1.57513 11.55 1.57513Z" fill="#FF26BE"/>
<path d="M12.075 4.20009H50.925C56.175 4.20009 60.375 8.40005 60.375 13.6501V50.9251C60.375 56.1751 56.175 60.3751 50.925 60.3751H12.075C6.82496 60.3751 2.625 56.1751 2.625 50.9251V13.6501C2.625 8.40017 6.82496 4.20009 12.075 4.20009Z" fill="#2E001F"/>
<path d="M25.2591 31.6624L32.6469 45.9895C32.7788 46.2005 32.6997 46.4117 32.4886 46.4117H27.8711C27.6283 46.4438 27.3965 46.3003 27.317 46.0686C25.6283 42.5858 23.9046 38.971 22.1455 35.2243H22.1192C20.536 38.7599 18.821 42.6121 17.106 46.095C17.0195 46.2776 16.833 46.3915 16.631 46.3852H12.2512C11.9874 46.3852 11.9609 46.1742 12.0928 46.0158L19.3488 32.1108L12.3568 18.2586C12.265 18.1701 12.2623 18.0239 12.3507 17.9321C12.4002 17.8808 12.4706 17.8552 12.5414 17.8628H17.0797C17.3435 17.8628 17.4754 17.9156 17.5546 18.1531C19.2169 21.6887 20.8791 25.1451 22.4622 28.6808H22.515C24.0453 25.1979 25.734 21.6887 27.3435 18.2322C27.4754 18.0212 27.5545 17.8892 27.8185 17.8892H32.0665C32.2775 17.8892 32.3568 18.0475 32.2249 18.2849L25.2591 31.6624ZM34.2564 35.9368C34.2564 29.789 38.2142 24.987 44.7049 24.987C45.1629 24.9778 45.621 24.9954 46.0769 25.0398V18.1797C46.0769 18.034 46.195 17.9159 46.3407 17.9159H50.5888C50.7998 17.9159 50.8526 17.995 50.8526 18.1269V42.243C50.8371 43.1069 50.8811 43.9709 50.9845 44.8287C50.9845 45.0134 50.9845 45.0397 50.8261 45.119C48.7164 46.1249 46.4089 46.6477 44.0715 46.6493C38.3461 46.6492 34.2564 43.1135 34.2564 35.9368ZM46.077 29.1822C45.592 28.9846 45.0699 28.8946 44.5467 28.9184C41.2485 28.9184 39.0057 31.4777 39.0057 35.7257C39.0057 40.5805 41.2749 42.533 44.2299 42.533C44.8496 42.5504 45.4671 42.4519 46.0506 42.2427V29.1822H46.077Z" fill="white"/>
<path opacity="0.15" d="M25.2591 31.6624L32.6469 45.9895C32.7788 46.2005 32.6997 46.4117 32.4886 46.4117H27.8711C27.6283 46.4438 27.3965 46.3003 27.317 46.0686C25.6283 42.5858 23.9046 38.971 22.1455 35.2243H22.1192C20.536 38.7599 18.821 42.6121 17.106 46.095C17.0195 46.2776 16.833 46.3915 16.631 46.3852H12.2512C11.9874 46.3852 11.9609 46.1742 12.0928 46.0158L19.3488 32.1108L12.3568 18.2586C12.265 18.1701 12.2623 18.0239 12.3507 17.9321C12.4002 17.8808 12.4706 17.8552 12.5414 17.8628H17.0797C17.3435 17.8628 17.4754 17.9156 17.5546 18.1531C19.2169 21.6887 20.8791 25.1451 22.4622 28.6808H22.515C24.0453 25.1979 25.734 21.6887 27.3435 18.2322C27.4754 18.0212 27.5545 17.8892 27.8185 17.8892H32.0665C32.2775 17.8892 32.3568 18.0475 32.2249 18.2849L25.2591 31.6624ZM34.2564 35.9368C34.2564 29.789 38.2142 24.987 44.7049 24.987C45.1629 24.9778 45.621 24.9954 46.0769 25.0398V18.1797C46.0769 18.034 46.195 17.9159 46.3407 17.9159H50.5888C50.7998 17.9159 50.8526 17.995 50.8526 18.1269V42.243C50.8371 43.1069 50.8811 43.9709 50.9845 44.8287C50.9845 45.0134 50.9845 45.0397 50.8261 45.119C48.7164 46.1249 46.4089 46.6477 44.0715 46.6493C38.3461 46.6492 34.2564 43.1135 34.2564 35.9368ZM46.077 29.1822C45.592 28.9846 45.0699 28.8946 44.5467 28.9184C41.2485 28.9184 39.0057 31.4777 39.0057 35.7257C39.0057 40.5805 41.2749 42.533 44.2299 42.533C44.8496 42.5504 45.4671 42.4519 46.0506 42.2427V29.1822H46.077Z" fill="#FF26BE"/>
</g>
<defs>
<clipPath id="clip0">
<rect width="63" height="63" fill="white"/>
</clipPath>
</defs>
</svg>
