<svg width="63" height="63" viewBox="0 0 63 63" fill="none" xmlns="http://www.w3.org/2000/svg">
<path d="M61.3964 28.7329L34.2685 1.6065C32.7073 0.0442942 30.1735 0.0442942 28.6098 1.6065L22.9777 7.24008L30.1233 14.3857C31.7844 13.8251 33.6882 14.2011 35.0117 15.5246C36.3421 16.8564 36.7157 18.7765 36.1403 20.443L43.027 27.3307C44.693 26.7563 46.616 27.1274 47.9459 28.4602C49.8064 30.3192 49.8064 33.3329 47.9459 35.1929C46.0854 37.0533 43.0728 37.0533 41.2113 35.1929C39.8125 33.7931 39.4665 31.7382 40.1753 30.0146L33.7532 23.592L33.7522 40.4942C34.206 40.7182 34.6337 41.0174 35.0117 41.3939C36.8717 43.2529 36.8717 46.2656 35.0117 48.1286C33.1517 49.9875 30.1371 49.9875 28.2791 48.1286C26.4196 46.2661 26.267 43.2534 28.126 41.3939C28.5857 40.9347 29.039 40.5877 29.5312 40.3554V23.2967C29.039 23.0644 28.5862 22.7199 28.1255 22.2577C26.7174 20.85 26.4541 18.7829 27.1766 17.0523L20.1713 10.0076L1.58923 28.6074C0.026535 30.1711 0.0363787 32.7049 1.59907 34.2676L28.7314 61.394C30.2931 62.9562 32.8289 62.9562 34.393 61.394L61.3944 34.3936C62.9571 32.8304 62.9586 30.2951 61.3964 28.7329Z" fill="#F34F29"/>
</svg>
