<svg width="63" height="63" viewBox="0 0 63 63" fill="none" xmlns="http://www.w3.org/2000/svg">
<g clip-path="url(#clip0)">
<path d="M12.2244 13.6973C9.57835 12.1433 6.19735 13.062 4.6696 15.75C4.40973 16.2146 4.21285 16.716 4.0921 17.2358C3.3781 20.2571 5.2051 23.2943 8.17135 24.0188L8.16873 38.9786C7.14235 39.2333 6.20523 39.7819 5.47548 40.5615C3.37023 42.8059 3.4516 46.3628 5.6566 48.5048C7.86423 50.6494 11.3607 50.5628 13.466 48.321L26.2051 55.7944C26.0529 56.3167 25.9767 56.8549 25.9767 57.393C25.9794 60.4931 28.4521 63.0026 31.4997 63C32.0877 63 32.6679 62.9029 33.2296 62.7165C36.1276 61.7426 37.7026 58.5638 36.7419 55.6133L49.3996 48.1792C49.7907 48.6255 50.2527 49.0088 50.7567 49.3054C53.4054 50.8594 56.7837 49.938 58.3115 47.2526C58.5819 46.7775 58.7866 46.263 58.91 45.7275C59.6161 42.7192 57.7891 39.7005 54.8334 38.9839V24.024C55.3426 23.898 55.8256 23.7011 56.2745 23.4386C58.9284 21.8925 59.8497 18.4511 58.3272 15.7526C58.0621 15.2906 57.7366 14.868 57.3534 14.5005C55.1379 12.3585 51.6335 12.4478 49.5282 14.7026L36.7917 7.22138C36.944 6.699 37.0254 6.15038 37.0227 5.60175C37.0201 2.50425 34.5474 -0.00262294 31.4997 2.05964e-06C30.9669 2.05964e-06 30.434 0.0761271 29.9247 0.231002C27.0084 1.11038 25.3389 4.2315 26.2051 7.20563L13.4607 14.6869C13.0985 14.2958 12.6811 13.9624 12.2244 13.6973ZM35.5842 53.6051C34.571 52.479 33.1167 51.7729 31.4997 51.7729C29.9352 51.7729 28.5256 52.4265 27.5255 53.487L14.7785 46.0005L14.8336 45.7826H48.1659C48.1947 45.9086 48.2262 46.032 48.263 46.1554L35.5842 53.6051ZM35.4635 9.5235L48.2289 17.0258C48.2105 17.0861 48.1947 17.1518 48.179 17.2148C47.4466 20.223 49.2447 23.2654 52.2005 24.0083V38.9891C52.1322 39.0075 52.0561 39.0259 51.9879 39.0495L35.3139 9.67575C35.369 9.62588 35.4162 9.57863 35.4635 9.5235ZM29.9641 11.0093C30.9669 11.3033 32.0326 11.3033 33.0406 11.0093L49.7172 40.3725C48.9534 41.1154 48.4126 42.0682 48.1606 43.113H14.8415C14.5895 42.0735 14.0514 41.1233 13.2927 40.3804L29.9641 11.0093ZM14.7627 17.0074L27.5281 9.52088L27.683 9.67838L11.0142 39.0495L10.7964 38.9891V24.0056C10.862 23.9873 10.925 23.9715 10.9932 23.9505C13.9201 23.0921 15.608 19.9868 14.7627 17.0074Z" fill="#DF34A6"/>
</g>
<defs>
<clipPath id="clip0">
<rect width="63" height="63" fill="white"/>
</clipPath>
</defs>
</svg>
