<svg width="54" height="54" viewBox="0 0 54 54" fill="none" xmlns="http://www.w3.org/2000/svg">
<path d="M47.25 22.5C47.25 38.25 27 51.75 27 51.75C27 51.75 6.75 38.25 6.75 22.5C6.75 17.1294 8.88348 11.9787 12.6811 8.18109C16.4787 4.38348 21.6294 2.25 27 2.25C32.3706 2.25 37.5213 4.38348 41.3189 8.18109C45.1165 11.9787 47.25 17.1294 47.25 22.5Z" stroke="white" stroke-width="2" stroke-linecap="round" stroke-linejoin="round"/>
<path d="M27 29.25C30.7279 29.25 33.75 26.2279 33.75 22.5C33.75 18.7721 30.7279 15.75 27 15.75C23.2721 15.75 20.25 18.7721 20.25 22.5C20.25 26.2279 23.2721 29.25 27 29.25Z" stroke="white" stroke-width="2" stroke-linecap="round" stroke-linejoin="round"/>
</svg>
