<svg width="63" height="63" viewBox="0 0 63 63" fill="none" xmlns="http://www.w3.org/2000/svg">
<path d="M32.9329 63L31.2555 62.4277C31.2555 62.4277 31.4603 53.8781 28.3917 53.2639C26.3468 50.8909 28.7198 -47.3734 36.0829 52.9357C36.0829 52.9357 33.5472 54.2036 33.0957 56.3719C32.6074 58.5007 32.9329 63 32.9329 63Z" fill="white"/>
<path d="M32.9329 63L31.2555 62.4277C31.2555 62.4277 31.4603 53.8781 28.3917 53.2639C26.3468 50.8909 28.7198 -47.3734 36.0829 52.9357C36.0829 52.9357 33.5472 54.2036 33.0957 56.3719C32.6074 58.5007 32.9329 63 32.9329 63Z" fill="#A6A385"/>
<path d="M33.8337 54.7365C33.8337 54.7365 48.5205 45.0818 45.0844 24.9953C41.7717 10.3924 33.957 5.60438 33.0987 3.76426C32.1589 2.45438 31.2585 0.165382 31.2585 0.165382L31.8728 40.7873C31.8702 40.8266 30.6023 53.2219 33.8337 54.7365Z" fill="white"/>
<path d="M33.8337 54.7365C33.8337 54.7365 48.5205 45.0818 45.0844 24.9953C41.7717 10.3924 33.957 5.60438 33.0987 3.76426C32.1589 2.45438 31.2585 0.165382 31.2585 0.165382L31.8728 40.7873C31.8702 40.8266 30.6023 53.2219 33.8337 54.7365Z" fill="#499D4A"/>
<path d="M30.3976 55.2668C30.3976 55.2668 16.6111 45.8587 17.4301 29.2897C18.2071 12.7208 27.9432 4.58063 29.8254 3.108C31.0539 1.80075 31.0932 1.30988 31.1746 0C32.033 1.84012 31.8702 27.531 31.9936 30.5576C32.3611 42.2179 31.34 53.0591 30.3976 55.2668Z" fill="white"/>
<path d="M30.3976 55.2668C30.3976 55.2668 16.6111 45.8587 17.4301 29.2897C18.2071 12.7208 27.9432 4.58063 29.8254 3.108C31.0539 1.80075 31.0932 1.30988 31.1746 0C32.033 1.84012 31.8702 27.531 31.9936 30.5576C32.3611 42.2179 31.34 53.0591 30.3976 55.2668Z" fill="#58AA50"/>
</svg>
