<svg width="63" height="63" viewBox="0 0 63 63" fill="none" xmlns="http://www.w3.org/2000/svg">
<path d="M57.6272 39.1631C57.6303 39.1631 57.6328 39.1606 57.6328 39.1575C57.6328 39.1544 57.6303 39.1519 57.6272 39.1519C57.6241 39.1519 57.6216 39.1544 57.6216 39.1575C57.6216 39.1606 57.6241 39.1631 57.6272 39.1631Z" fill="black"/>
<path d="M49.8514 38.6584L49.8566 38.6636V38.6663L49.8487 38.6689C49.4681 38.808 49.1531 38.8658 48.888 38.9839C48.6176 39.0915 48.3997 39.2884 48.2711 39.5404L48.2685 39.5456C48.1057 39.8475 47.964 40.383 48.006 41.2939C48.1136 41.3726 48.2449 41.433 48.3787 41.475L48.3892 41.4776C48.8329 41.6141 49.5757 41.7034 50.4052 41.6903C52.059 41.6719 54.096 41.2808 55.1775 40.7715C56.1094 40.3279 56.9074 39.7924 57.6188 39.1571C54.0068 39.9131 51.9671 39.711 50.715 39.1886C50.3895 39.0469 50.1034 38.871 49.8514 38.6584Z" fill="#32648D"/>
<path d="M46.1477 10.8964L46.1637 10.9204L46.1824 10.9417L46.1477 10.8964Z" fill="#32648D"/>
<path d="M32.3318 50.6598C32.3292 50.5942 32.3318 50.526 32.3292 50.4603C32.3292 50.4341 32.3266 50.4157 32.3266 50.3895L32.3318 50.6598ZM29.5625 39.0757C29.4102 38.9996 29.2317 38.9445 29.0401 38.9182H29.0322V38.913H28.9771C28.8406 38.9261 28.6411 38.9734 28.2526 39.4065C27.3496 40.4302 27.0346 41.0733 26.2891 41.6745C25.5436 42.273 24.5776 42.5932 22.6456 42.9948C22.034 43.1208 21.6822 43.26 21.4512 43.3728C21.5273 43.4359 21.5195 43.4516 21.6323 43.512C21.9158 43.6695 22.2781 43.8086 22.5721 43.8847C23.4016 44.0947 24.7666 44.3388 26.1893 44.0947C27.6121 43.848 29.0926 43.1576 30.3552 41.3647C30.5731 41.055 30.5967 40.5982 30.4182 40.1073C30.2397 39.6165 29.8407 39.1938 29.5625 39.0757ZM40.1622 3.94273L40.0126 3.97161C40.0625 3.96111 40.1176 3.95586 40.1675 3.94536C40.1648 3.94536 40.1648 3.94273 40.1622 3.94273ZM47.465 18.1125C45.7036 18.1361 44.7166 18.5955 44.1968 19.1966C43.4618 20.0497 43.3936 21.546 43.8503 23.3887C44.3045 25.2341 45.2416 27.2974 46.1236 29.0115C46.5646 29.8699 46.9925 30.6416 47.3363 31.269C47.6828 31.899 47.9375 32.3452 48.0923 32.7259C48.2341 33.0776 48.3942 33.3874 48.5543 33.6761C49.2368 32.2192 49.3576 30.7886 49.2893 29.2976C49.2001 27.4522 48.7748 25.5649 48.8378 23.6539C48.9087 21.42 49.3445 19.9657 49.3812 18.2385C48.8063 18.1597 48.1396 18.1125 47.465 18.1125ZM47.7905 19.4407L47.7878 19.4617C47.7878 19.4696 47.7878 19.4775 47.7878 19.488C47.7878 19.6087 47.7537 19.7242 47.6933 19.8187L47.696 19.8161C47.6146 19.9657 47.5201 20.097 47.4098 20.2099C47.1526 20.496 46.8087 20.6955 46.4202 20.7637L46.4097 20.7664C46.3546 20.7742 46.2916 20.7769 46.226 20.7769C45.8952 20.7769 45.5907 20.6719 45.3413 20.4934L45.3466 20.496C45.218 20.4067 45.1051 20.3044 45.0132 20.1889L45.0106 20.1862C44.9292 20.097 44.8715 19.9815 44.8478 19.8581V19.8529C44.8478 19.8397 44.8452 19.8266 44.8452 19.8135C44.8452 19.7006 44.8872 19.5956 44.9581 19.5169C45.0421 19.4197 45.1418 19.341 45.2573 19.2832L45.2626 19.2806C45.512 19.1389 45.848 19.0339 46.2286 18.9761C46.3703 18.9551 46.5121 18.9446 46.6433 18.942V18.9499H46.772C46.9426 18.9551 47.1001 18.9735 47.2392 19.0076C47.3783 19.0391 47.4991 19.0864 47.5962 19.152C47.6933 19.2176 47.7668 19.3174 47.7905 19.4407ZM18.5768 29.6809C18.5768 29.2084 18.6136 28.7464 18.6818 28.2922L18.6766 28.3421C18.9443 26.4022 18.9811 24.5884 18.9496 23.1551C18.9181 21.7586 18.8183 20.8294 18.8183 20.2492C18.8183 20.2414 18.8183 20.2335 18.8183 20.2256C18.8183 20.2177 18.8183 20.2072 18.8183 20.1994V20.1862L18.8157 20.1705V20.1679C18.8157 20.1626 18.8157 20.16 18.8157 20.1547C18.8157 17.0467 19.3617 14.0674 20.3513 11.3032C21.0785 9.35023 22.16 7.36836 23.7796 5.76186C22.1862 5.23161 19.3617 4.42311 16.301 4.27086C16.007 4.25511 15.6631 4.24461 15.3192 4.24461H15.3166V4.24723C14.9885 4.24723 14.6577 4.25773 14.3322 4.27611C11.7125 4.42836 9.23447 5.19748 7.46522 7.09798C5.69072 8.99848 4.52259 12.1144 4.77722 17.2725C4.82709 18.249 5.24709 20.9842 5.96634 24.234C6.68822 27.4837 7.70409 31.3084 8.92734 34.6867C10.1532 38.0651 11.639 41.0051 13.0512 42.3963C13.7626 43.092 14.3795 43.3728 14.9386 43.3492C15.5003 43.323 16.1776 42.9949 17.0045 41.9895C18.6293 40.0102 20.165 38.2593 21.7505 36.5583L21.698 36.6135C19.7817 34.9204 18.5768 32.445 18.5768 29.6809Z" fill="#32648D"/>
<path d="M32.5399 4.11598V4.11073C29.4739 4.11861 27.2767 5.05573 25.6072 6.46011C23.8879 7.91173 22.7355 9.89886 21.9769 11.9332C21.0765 14.3482 20.7694 16.6845 20.646 18.27L20.6801 18.249C21.6067 17.724 22.8221 17.199 24.1241 16.8945C25.4261 16.59 26.8279 16.4981 28.0984 16.9969C29.3689 17.4956 30.4189 18.669 30.7995 20.4487C32.6239 28.9984 30.2325 32.1772 29.3505 34.5765C29.0696 35.2669 28.7782 36.1541 28.5341 37.0597L28.4921 37.2356C28.6024 37.2094 28.7152 37.1779 28.8255 37.1674C29.4476 37.1149 29.9359 37.3249 30.2246 37.4509C31.1119 37.8236 31.7209 38.6059 32.049 39.4984C32.1356 39.732 32.196 39.984 32.2327 40.2439C32.2669 40.3331 32.2852 40.4381 32.2852 40.5457C32.2852 40.5562 32.2852 40.5667 32.2852 40.5772C32.2432 41.8897 32.217 43.4306 32.217 44.9794C32.217 46.8142 32.2537 48.6412 32.322 50.4604C32.3824 51.8411 32.469 53.0644 32.5766 54.0277C32.6895 55.0095 32.847 55.7524 32.9467 56.0044C33.2775 56.8444 33.7631 57.9442 34.6399 58.6924C35.5166 59.4379 36.774 59.9366 39.0709 59.4379C41.0632 59.0047 42.2917 58.4036 43.1134 57.54C43.935 56.6764 44.4232 55.4741 44.7356 53.634C45.2055 50.8777 46.1479 42.8846 46.2634 41.3805C46.2109 40.2465 46.3763 39.375 46.7359 38.7109C47.1034 38.0284 47.6756 37.611 48.1665 37.3852C48.4133 37.2724 48.6443 37.1962 48.8333 37.1411C48.6023 36.8077 48.3949 36.5295 48.1796 36.2591L48.2033 36.288C47.5234 35.4585 46.9432 34.5056 46.5049 33.4792L46.476 33.4031C46.2109 32.8545 45.9877 32.4397 45.7541 32.0329L45.8092 32.1352C45.4654 31.5052 45.0296 30.7177 44.5729 29.8331C43.6594 28.0612 42.6671 25.914 42.15 23.8219C41.6355 21.7324 41.562 19.5694 42.8797 18.0442C44.0452 16.6897 46.0954 16.128 49.1693 16.443C49.08 16.1674 49.0249 15.939 48.87 15.5715C48.1219 13.8127 47.2215 12.2955 46.1531 10.92C43.5465 7.55473 39.3334 4.22361 32.8286 4.11598H32.5399ZM30.5081 43.7482C30.5081 43.7797 30.5081 43.8086 30.5081 43.8401V43.7482Z" fill="#32648D"/>
<path d="M20.6082 20.397L20.6138 20.3942L20.6222 20.3857L20.6082 20.397Z" fill="#32648D"/>
<path d="M24.468 18.6193L24.4947 18.6167L24.5161 18.6086L24.468 18.6193Z" fill="#32648D"/>
<path d="M27.7191 33.9596C28.7717 31.0879 30.8429 28.9931 29.0999 20.8189C28.8137 19.4801 28.2494 18.9394 27.4724 18.6349C27.0944 18.4957 26.656 18.4144 26.1966 18.4144C26.1677 18.4144 26.1362 18.4144 26.1074 18.4144H26.1126C25.5535 18.4196 25.0127 18.4905 24.493 18.6165C23.3905 18.8947 22.4192 19.2885 21.5162 19.7925C21.1776 19.9789 20.8862 20.1731 20.6132 20.391L20.5634 20.4382C20.5791 20.8215 20.6526 21.7507 20.6841 23.1184C20.7156 24.6146 20.6789 26.523 20.3927 28.5889C19.7732 33.0776 22.9915 36.7946 26.7715 36.7999C26.9946 35.8785 27.3569 34.944 27.7191 33.9596ZM25.4852 20.916C25.3619 20.79 25.2621 20.6482 25.1807 20.4934L25.1755 20.4829C25.1072 20.3726 25.0679 20.2387 25.0679 20.0944C25.0679 20.0681 25.0705 20.0419 25.0731 20.0156V20.0182C25.1125 19.7347 25.3435 19.5877 25.5666 19.5064C25.774 19.4381 26.005 19.3987 26.2517 19.3987C26.2885 19.3987 26.3252 19.3987 26.3672 19.4014L26.3646 19.3909C26.5011 19.3909 26.6481 19.404 26.7951 19.425C27.1915 19.4801 27.5459 19.5877 27.8136 19.7452C27.9475 19.8187 28.063 19.9106 28.1549 20.0209L28.1575 20.0235C28.2467 20.1259 28.2992 20.2597 28.2992 20.4094C28.2992 20.4304 28.2992 20.4514 28.2966 20.4724V20.4697C28.2704 20.6272 28.1995 20.7637 28.1024 20.874C27.9947 21.0052 27.874 21.1181 27.7375 21.2126L27.7322 21.2152C27.4671 21.4095 27.1337 21.525 26.7741 21.525C26.7032 21.525 26.6324 21.5197 26.5641 21.5119H26.572C26.1362 21.4384 25.7635 21.2231 25.4852 20.916Z" fill="#32648D"/>
<path d="M21.4641 19.8188C21.4825 19.8083 21.5009 19.803 21.5166 19.7925C21.5192 19.7925 21.5219 19.7899 21.5245 19.7873L21.4641 19.8188ZM47.5514 9.849C48.688 11.3059 49.6724 12.9649 50.431 14.7446L50.4861 14.889C50.7722 15.582 50.9639 16.1674 51.0715 16.6215C51.1266 16.8499 51.1634 17.0415 51.1765 17.241C51.1817 17.3408 51.187 17.4431 51.145 17.619C51.145 17.6269 51.1319 17.6453 51.1292 17.6531C51.208 19.9526 50.6436 21.5119 50.578 23.7064C50.5255 25.2971 50.9271 27.1661 51.0269 29.2058C51.1214 31.122 50.893 33.2273 49.6619 35.2931C49.7669 35.4191 49.8587 35.5451 49.9585 35.6711C53.2109 30.4868 55.555 24.7511 56.8045 19.8608C57.4739 17.2279 57.8282 14.8418 57.8597 12.9518C57.886 11.0618 57.5369 9.6915 57.0959 9.11925C53.6151 4.61475 48.9085 3.46763 44.9605 3.43613V3.43875H44.5825C43.06 3.46238 41.59 3.63825 40.1699 3.94538C43.3934 5.39438 45.8346 7.62563 47.5514 9.849Z" fill="#32648D"/>
<path d="M32.9728 0.67725H32.9465C29.891 0.62475 27.2687 1.3755 25.1503 2.625C23.066 1.89262 18.7426 0.63 14.183 0.882C11.0094 1.05788 7.5444 2.03438 4.97715 4.7775C2.41777 7.52063 1.0659 11.7653 1.3494 17.5403C1.42815 19.1336 1.87702 21.7324 2.6199 25.0976C3.3654 28.4629 4.41015 32.403 5.71477 35.9966C7.0194 39.5929 8.4474 42.8216 10.6813 45.0161C11.7969 46.116 13.3325 47.04 15.1411 46.9639C16.4116 46.9114 17.5588 46.347 18.551 45.5149C19.034 46.158 19.5485 46.4389 20.0184 46.6988C20.609 47.0269 21.1839 47.25 21.7798 47.397C22.8508 47.6674 24.683 48.0296 26.8303 47.6595C27.5626 47.5361 28.3318 47.2946 29.0983 46.9507C29.1271 47.817 29.1613 48.6649 29.1928 49.5232C29.3004 52.2427 29.366 54.7549 30.1719 56.9572C30.3005 57.3169 30.6575 59.1701 32.0566 60.8055C33.4558 62.4435 36.2015 63.4646 39.3253 62.7874C41.5303 62.3096 44.3312 61.4486 46.1949 58.7659C48.035 56.1146 48.8645 52.311 49.0299 46.1422C49.0719 45.8089 49.1218 45.5254 49.1717 45.2603L49.61 45.2996H49.6625C52.0145 45.4072 54.566 45.0686 56.6975 44.0659C58.5849 43.1813 60.0129 42.2861 61.055 40.698C61.3149 40.3042 61.5984 39.8291 61.6772 39.0101C61.7559 38.1911 61.2913 36.9101 60.5195 36.3195C58.976 35.133 58.0074 35.5845 56.9679 35.8024C56.0413 36.0202 54.9703 36.1567 53.873 36.1856H53.852C56.8498 31.0747 58.9997 25.6462 60.2255 20.8425C60.9527 18.0075 61.3595 15.393 61.391 13.1066C61.4251 10.8203 61.2414 8.79638 59.8869 7.0455C55.658 1.575 49.7124 0.063 45.1108 0.0105C44.969 0.007875 44.8246 0.00525 44.6829 0.007875V0C42.1786 0.021 39.7689 0.399 37.4878 1.07362L37.3801 1.11038C36.0624 0.863625 34.532 0.706125 32.9728 0.67725ZM39.1914 2.34938C40.7979 1.953 42.6459 1.71413 44.5464 1.6905H44.5621L44.5648 1.68C48.917 1.638 54.4742 2.87438 58.4668 8.03775C59.3645 9.198 59.6323 10.8938 59.6008 12.9833C59.5667 15.0701 59.186 17.5691 58.4878 20.307C57.1333 25.6095 54.5765 31.7914 50.975 37.338C51.0932 37.4246 51.2297 37.5007 51.3714 37.5585L51.3845 37.5638C52.1353 37.8787 53.8494 38.1491 57.2698 37.4378C58.1308 37.254 58.7608 37.1306 59.4144 37.6346C59.7084 37.8866 59.8922 38.2594 59.8922 38.6768C59.8922 38.703 59.8922 38.7292 59.8895 38.7555V38.7529C59.8502 39.0863 59.732 39.3855 59.5509 39.6349C58.8894 40.6403 57.5848 41.5931 55.9153 42.378C54.4348 43.0762 52.3112 43.4411 50.429 43.4621C49.484 43.4726 48.6152 43.3991 47.8749 43.1655L47.8276 43.1471C47.5415 45.9296 46.8853 51.4238 46.4574 53.9306C46.1161 55.9519 45.5177 57.5584 44.3731 58.7606C43.2313 59.9629 41.6169 60.6874 39.4434 61.1599C36.7528 61.7453 34.7893 61.1152 33.524 60.0364C32.2614 58.9601 31.6839 57.5321 31.3348 56.658C31.0959 56.0542 30.9725 55.272 30.8518 54.2273C30.731 53.1825 30.6444 51.9041 30.584 50.463C30.5263 48.9983 30.4948 47.2762 30.4948 45.5464C30.4948 44.9767 30.5 44.4098 30.5053 43.8401C29.4212 44.8481 28.0509 45.5569 26.5284 45.8273L26.4811 45.8351C24.6935 46.1423 23.1001 45.8404 22.1473 45.5989C21.6406 45.4702 21.1996 45.2891 20.7849 45.0634C20.3491 44.8271 19.9344 44.5568 19.6561 44.0291C19.5459 43.827 19.4803 43.5829 19.4803 43.3256C19.4803 43.2232 19.4908 43.1209 19.5118 43.0264C19.6063 42.6746 19.8031 42.3754 20.0735 42.1654L20.0761 42.1628C20.5906 41.7401 21.2679 41.5039 22.2943 41.2886C24.158 40.9001 24.809 40.635 25.2054 40.3174C25.5414 40.0444 25.9246 39.4931 26.5966 38.6846C26.594 38.661 26.5914 38.6216 26.5888 38.5849V38.577C25.3183 38.5402 24.1344 38.1964 23.1001 37.6162L23.1395 37.6372C22.751 38.052 20.7639 40.1782 18.3436 43.1287C17.3251 44.3625 16.199 45.0712 15.0125 45.1211C13.826 45.171 12.7524 44.5672 11.8389 43.6721C10.0145 41.8792 8.56027 38.7949 7.2924 35.3089C6.02715 31.8229 4.99815 27.9405 4.26577 24.633C3.53077 21.3255 3.10027 18.6585 3.03727 17.3722C2.76427 11.907 4.0269 8.22412 6.19252 5.901C8.36077 3.57787 11.3323 2.6985 14.2276 2.5305C19.4278 2.22863 24.3628 4.0635 25.3629 4.45725C27.2896 3.13425 29.7703 2.31 32.8652 2.3625C34.4244 2.38612 35.9233 2.5935 37.3565 2.96362L37.2253 2.93475L37.2778 2.91112C37.7791 2.72212 38.4196 2.5305 39.0759 2.373L39.1914 2.34938Z" fill="black"/>
</svg>
