<svg width="63" height="63" viewBox="0 0 63 63" fill="none" xmlns="http://www.w3.org/2000/svg">
<path d="M59.9485 45.8227C56.6508 47.5453 39.5719 54.5344 35.9297 56.4539C32.2875 58.3734 30.2696 58.3242 27.4149 56.9461C24.5602 55.568 6.39849 48.2836 3.10083 46.7086C1.47661 45.9211 0.639893 45.2812 0.639893 44.6414V38.3906C0.639893 38.3906 24.2649 33.2227 28.104 31.8937C31.943 30.5156 33.2227 30.4664 36.4711 31.6477C39.7196 32.8289 59.161 36.3234 62.3602 37.5047V43.657C62.3602 44.2969 61.6219 44.9859 59.9485 45.8227Z" fill="#A41E11"/>
<path d="M59.9484 39.6211C56.6507 41.3438 39.5718 48.3328 35.9296 50.2524C32.2875 52.1719 30.2695 52.1227 27.4148 50.7446C24.5601 49.3664 6.39839 42.0328 3.10073 40.4578C-0.147703 38.8828 -0.246141 37.8 2.95308 36.5696C6.1523 35.2899 24.2156 28.2024 28.0546 26.8735C31.8937 25.4953 33.1734 25.4461 36.4218 26.6274C39.6703 27.8086 56.6507 34.5516 59.8499 35.7328C63.1476 36.9141 63.246 37.8985 59.9484 39.6211Z" fill="#D82C20"/>
<path d="M59.9485 35.6836C56.6508 37.4063 39.5719 44.3953 35.9297 46.3149C32.2875 48.1852 30.2696 48.1852 27.4149 46.8071C24.5602 45.4289 6.39849 38.0953 3.10083 36.5203C1.47661 35.7328 0.639893 35.093 0.639893 34.4531V28.2024C0.639893 28.2024 24.2649 23.0344 28.104 21.7055C31.943 20.3274 33.2227 20.2781 36.4711 21.4594C39.7196 22.6406 59.161 26.1352 62.3602 27.3164V33.4688C62.3602 34.1086 61.6219 34.7977 59.9485 35.6836Z" fill="#A41E11"/>
<path d="M59.9485 29.4328C56.6508 31.1555 39.5719 38.1445 35.9297 40.0641C32.2875 41.9344 30.2696 41.9344 27.4149 40.5563C24.5602 39.1781 6.39846 31.8445 3.1008 30.2695C-0.196853 28.6945 -0.246072 27.6117 2.95315 26.3813C6.15237 25.1016 24.2156 18.0141 28.0547 16.6852C31.8938 15.307 33.1735 15.2578 36.4219 16.4391C39.6703 17.6203 56.6508 24.3633 59.85 25.5445C63.1477 26.7258 63.2461 27.7102 59.9485 29.4328Z" fill="#D82C20"/>
<path d="M59.9484 25.1016C56.6507 26.8242 39.5718 33.8133 35.9296 35.7328C32.2875 37.6031 30.2695 37.6031 27.4148 36.225C24.5601 34.8961 6.39839 27.5625 3.10073 25.9875C1.47651 25.2 0.590576 24.5601 0.590576 23.9203V17.6695C0.590576 17.6695 24.2156 12.5016 28.0546 11.1726C31.8937 9.79452 33.1734 9.74531 36.4218 10.9266C39.6703 12.1078 59.1117 15.6023 62.3109 16.7836V22.9359C62.3601 23.5758 61.6218 24.2156 59.9484 25.1016Z" fill="#A41E11"/>
<path d="M59.9485 18.8508C56.6508 20.5734 39.5719 27.5625 35.9297 29.482C32.2875 31.3523 30.2696 31.3523 27.4149 29.9742C24.5602 28.5961 6.39846 21.3117 3.1008 19.7367C-0.196853 18.1617 -0.246072 17.0789 2.95315 15.8484C6.15237 14.5687 24.2156 7.48125 28.0547 6.15234C31.8938 4.77421 33.1735 4.725 36.4219 5.90625C39.6703 7.0875 56.6508 13.8305 59.85 15.0117C63.1477 16.193 63.2461 17.1773 59.9485 18.8508Z" fill="#D82C20"/>
<path d="M39.5718 12.8461L34.2562 13.4367L33.0257 16.2914L31.1062 13.0922L24.9539 12.5508L29.5312 10.8773L28.1531 8.31796L32.4843 9.9914L36.5203 8.66249L35.4375 11.3203L39.5718 12.8461ZM32.7304 26.8242L22.739 22.6898L37.0617 20.5242L32.7304 26.8242Z" fill="white"/>
<path d="M18.9001 20.3766C23.1135 20.3766 26.5291 19.0544 26.5291 17.4234C26.5291 15.7925 23.1135 14.4703 18.9001 14.4703C14.6868 14.4703 11.2712 15.7925 11.2712 17.4234C11.2712 19.0544 14.6868 20.3766 18.9001 20.3766Z" fill="white"/>
<path d="M45.9211 13.6336L54.3868 16.9804L45.9211 20.3273V13.6336Z" fill="#7A0C00"/>
<path d="M36.5696 17.3742L45.9211 13.6336V20.3273L44.986 20.7211L36.5696 17.3742Z" fill="#AD2115"/>
</svg>
