<svg width="63" height="63" viewBox="0 0 63 63" fill="none" xmlns="http://www.w3.org/2000/svg">
<rect x="11" y="9" width="50" height="50" fill="white"/>
<path d="M0.984375 31.4555V62.2172H62.5078V0.693756H0.984375V31.4555ZM50.5624 28.9945C52.036 29.3365 53.3753 30.1072 54.4113 31.2094C54.9817 31.8032 55.4775 32.4643 55.8879 33.1781C55.8879 33.2569 53.2301 35.0534 51.6108 36.0574C51.5517 36.0968 51.3155 35.8409 51.0546 35.452C50.759 34.942 50.339 34.5151 49.8338 34.2113C49.3286 33.9075 48.7546 33.7366 48.1655 33.7146C46.3001 33.5866 45.0991 34.5661 45.109 36.1756C45.0936 36.5763 45.1853 36.9738 45.3748 37.3273C45.7833 38.1788 46.5462 38.6857 48.9382 39.7193C53.3433 41.6142 55.2284 42.8644 56.3998 44.6412C57.709 46.6099 57.9994 49.7895 57.1134 52.1421C56.1291 54.7015 53.7173 56.4389 50.3065 57.0148C48.7486 57.1932 47.1746 57.1767 45.6209 56.9656C43.2496 56.5809 41.0622 55.4518 39.375 53.7417C38.809 53.1166 37.7065 51.4875 37.7754 51.3694C37.9551 51.236 38.1442 51.1159 38.3414 51.0101L40.6055 49.7107L42.3724 48.687L42.7416 49.2333C43.3645 50.1244 44.1574 50.8838 45.0745 51.4678C47.0433 52.5014 49.7306 52.3587 51.0595 51.1627C51.5057 50.7244 51.7841 50.1435 51.8461 49.5212C51.9082 48.8989 51.75 48.2745 51.3991 47.7567C50.907 47.0726 49.9226 46.4967 47.1712 45.2958C43.9966 43.9275 42.6284 43.0809 41.3782 41.7323C40.5978 40.8424 40.0215 39.7925 39.69 38.6562C39.4427 37.358 39.4061 36.0285 39.5817 34.7187C40.2363 31.6523 42.5348 29.5113 45.8916 28.8764C47.4461 28.6841 49.0208 28.7272 50.5624 29.0044V28.9945ZM36.1216 31.5736V34.0936H28.1334V56.8474H22.4684V34.0887H14.4605V31.6277C14.439 30.7806 14.462 29.9328 14.5294 29.0881C14.5589 29.0487 19.4513 29.029 25.3575 29.0388H36.0921L36.1216 31.5736Z" fill="#007ACC"/>
</svg>
