<svg width="26" height="25" viewBox="0 0 26 25" fill="none" xmlns="http://www.w3.org/2000/svg">
<path d="M12.8437 12.3058C12.8437 15.1259 10.5093 17.4437 7.59007 17.4437C4.67084 17.4437 2.3364 15.1259 2.3364 12.3058C2.3364 9.48581 4.67084 7.16797 7.59007 7.16797C10.5093 7.16797 12.8437 9.48581 12.8437 12.3058Z" fill="#FF0B56" stroke="#FF0B56" stroke-width="2"/>
<path d="M20.1397 12.3041C20.1397 13.7205 19.8185 14.9534 19.3498 15.7968C18.8623 16.674 18.3484 16.9305 18.0129 16.9305C17.6773 16.9305 17.1634 16.674 16.6759 15.7968C16.2072 14.9534 15.886 13.7205 15.886 12.3041C15.886 10.8877 16.2072 9.65483 16.6759 8.81143C17.1634 7.93423 17.6773 7.67773 18.0129 7.67773C18.3484 7.67773 18.8623 7.93423 19.3498 8.81143C19.8185 9.65483 20.1397 10.8877 20.1397 12.3041Z" fill="#FF0B56" stroke="#FF0B56" stroke-width="2"/>
<path d="M23.2243 17.4192C23.7999 17.4192 24.2665 15.1292 24.2665 12.3043C24.2665 9.47947 23.7999 7.18945 23.2243 7.18945C22.6486 7.18945 22.182 9.47947 22.182 12.3043C22.182 15.1292 22.6486 17.4192 23.2243 17.4192Z" fill="#FF0B56"/>
</svg>
