<svg width="176" height="176" viewBox="0 0 176 176" fill="none" xmlns="http://www.w3.org/2000/svg">
<circle cx="88" cy="88" r="84.5" stroke="#08FDD8" stroke-width="7"/>
<path d="M79.1167 132.68C70.7967 132.68 63.7967 130.84 58.1167 127.16C52.4367 123.4 48.4367 118.32 46.1167 111.92L60.2767 103.64C63.5567 112.2 69.9967 116.48 79.5967 116.48C84.2367 116.48 87.6367 115.64 89.7967 113.96C91.9567 112.28 93.0367 110.16 93.0367 107.6C93.0367 104.64 91.7167 102.36 89.0767 100.76C86.4367 99.08 81.7167 97.28 74.9167 95.36C71.1567 94.24 67.9567 93.12 65.3167 92C62.7567 90.88 60.1567 89.4 57.5167 87.56C54.9567 85.64 52.9967 83.24 51.6367 80.36C50.2767 77.48 49.5967 74.12 49.5967 70.28C49.5967 62.68 52.2767 56.64 57.6367 52.16C63.0767 47.6 69.5967 45.32 77.1967 45.32C83.9967 45.32 89.9567 47 95.0767 50.36C100.277 53.64 104.317 58.24 107.197 64.16L93.2767 72.2C89.9167 65 84.5567 61.4 77.1967 61.4C73.7567 61.4 71.0367 62.2 69.0367 63.8C67.1167 65.32 66.1567 67.32 66.1567 69.8C66.1567 72.44 67.2367 74.6 69.3967 76.28C71.6367 77.88 75.8767 79.64 82.1167 81.56C84.6767 82.36 86.5967 83 87.8767 83.48C89.2367 83.88 91.0367 84.56 93.2767 85.52C95.5967 86.4 97.3567 87.24 98.5567 88.04C99.8367 88.84 101.277 89.92 102.877 91.28C104.477 92.64 105.677 94.04 106.477 95.48C107.357 96.92 108.077 98.68 108.637 100.76C109.277 102.76 109.597 104.96 109.597 107.36C109.597 115.12 106.757 121.28 101.077 125.84C95.4767 130.4 88.1567 132.68 79.1167 132.68ZM133.534 129.56C131.534 131.56 129.134 132.56 126.334 132.56C123.534 132.56 121.134 131.56 119.134 129.56C117.134 127.56 116.134 125.16 116.134 122.36C116.134 119.56 117.134 117.16 119.134 115.16C121.134 113.16 123.534 112.16 126.334 112.16C129.134 112.16 131.534 113.16 133.534 115.16C135.534 117.16 136.534 119.56 136.534 122.36C136.534 125.16 135.534 127.56 133.534 129.56Z" fill="white"/>
</svg>
