<svg width="83" height="83" viewBox="0 0 83 83" fill="none" xmlns="http://www.w3.org/2000/svg">
<circle cx="41.5" cy="41.5" r="38.5" stroke="#FF0B56" stroke-width="6"/>
<path d="M35.8015 57.7C32.3348 57.7 29.4181 56.9333 27.0515 55.4C24.6848 53.8333 23.0181 51.7167 22.0515 49.05L27.9515 45.6C29.3181 49.1667 32.0015 50.95 36.0015 50.95C37.9348 50.95 39.3515 50.6 40.2515 49.9C41.1515 49.2 41.6015 48.3167 41.6015 47.25C41.6015 46.0167 41.0515 45.0667 39.9515 44.4C38.8515 43.7 36.8848 42.95 34.0515 42.15C32.4848 41.6833 31.1515 41.2167 30.0515 40.75C28.9848 40.2833 27.9015 39.6667 26.8015 38.9C25.7348 38.1 24.9181 37.1 24.3515 35.9C23.7848 34.7 23.5015 33.3 23.5015 31.7C23.5015 28.5333 24.6181 26.0167 26.8515 24.15C29.1181 22.25 31.8348 21.3 35.0015 21.3C37.8348 21.3 40.3181 22 42.4515 23.4C44.6181 24.7667 46.3015 26.6833 47.5015 29.15L41.7015 32.5C40.3015 29.5 38.0681 28 35.0015 28C33.5681 28 32.4348 28.3333 31.6015 29C30.8015 29.6333 30.4015 30.4667 30.4015 31.5C30.4015 32.6 30.8515 33.5 31.7515 34.2C32.6848 34.8667 34.4515 35.6 37.0515 36.4C38.1181 36.7333 38.9181 37 39.4515 37.2C40.0181 37.3667 40.7681 37.65 41.7015 38.05C42.6681 38.4167 43.4015 38.7667 43.9015 39.1C44.4348 39.4333 45.0348 39.8833 45.7015 40.45C46.3681 41.0167 46.8681 41.6 47.2015 42.2C47.5681 42.8 47.8681 43.5333 48.1015 44.4C48.3681 45.2333 48.5015 46.15 48.5015 47.15C48.5015 50.3833 47.3181 52.95 44.9515 54.85C42.6181 56.75 39.5681 57.7 35.8015 57.7ZM58.4753 56.4C57.642 57.2333 56.642 57.65 55.4753 57.65C54.3086 57.65 53.3086 57.2333 52.4753 56.4C51.642 55.5667 51.2253 54.5667 51.2253 53.4C51.2253 52.2333 51.642 51.2333 52.4753 50.4C53.3086 49.5667 54.3086 49.15 55.4753 49.15C56.642 49.15 57.642 49.5667 58.4753 50.4C59.3086 51.2333 59.7253 52.2333 59.7253 53.4C59.7253 54.5667 59.3086 55.5667 58.4753 56.4Z" fill="white"/>
</svg>
